<svg xmlns="http://www.w3.org/2000/svg" xmlns:xlink="http://www.w3.org/1999/xlink" version="1.1" x="0px" y="0px"
    viewBox="0 0 498.567 414.937" enable-background="new 0 0 498.567 414.937" xml:space="preserve"
    style="fill: rgb(0, 0, 0);" role="img" aria-label="Floral Arrangement">
    <g id="__id1669_sczlvvi61p">
        <g id="__id1670_sczlvvi61p">
            <path
                d="M363.646,322.791c0,0,32.774-33.336,23.854-54.219c-10.231-23.977-52.577,11.119-44.985,52.707    L363.646,322.791z"
                style="fill: #3c5947;"></path>
            <path
                d="M403.385,329.5c0,0,23.097,40.646,9.102,58.529c-16.062,20.536-47.948-24.278-29.908-62.512L403.385,329.5    z"
                style="fill: #3c5947;"></path>
            <path
                d="M315.173,318.677c0,0,26.672,46.95,10.515,67.607c-18.554,23.722-57.257-25.212-36.421-69.374    L315.173,318.677z"
                style="fill: #3c5947;"></path>
            <path
                d="M83.949,130.538c0,0,38.963-32.366,60.699-20.846c24.959,13.22-16.768,55.757-60.982,43.796    L83.949,130.538z"
                style="fill: #3c5947;"></path>
            <path
                d="M80.301,87.023c0,0-41.795-28.617-62.364-15.131c-23.63,15.489,21.866,53.97,64.783,37.955L80.301,87.023z    "
                style="fill: #3c5947;"></path>
            <path
                d="M84.002,183.244c0,0-48.283-33.05-72.043-17.479c-27.29,17.883,22.03,64.102,71.6,45.605L84.002,183.244z"
                style="fill: #3c5947;"></path>
            <path
                d="M145.644,335.804c19.018,2.374,37.715,5.457,57.506,5.6c28.218,0.206,58.389-5.793,78.847-28.461    c18.116-20.07,27.435-41.375,41.49-65.071l-0.187-0.401c-19.022-2.371-37.72-5.456-57.491-5.596    c-28.247-0.199-58.395,5.791-78.854,28.458c-18.122,20.064-25.856,44.105-41.5,65.07"
                style="fill: #3c5947;"></path>
            <path
                d="M155.159,243.609c16.694-7.838,33.621-14.935,49.337-24.912c22.38-14.22,41.843-34.309,41.72-62.586    c-0.123-25.026-8.062-46.547-13.985-72.366l-0.43-0.22c-16.697,7.828-33.637,14.932-49.323,24.907    c-22.4,14.233-41.872,34.321-41.722,62.581c0.107,25.028,11.246,47.894,13.972,72.38"
                style="fill: #3c5947;"></path>
        </g>
        <g id="__id1671_sczlvvi61p">
            <path
                d="M171.619,276.21c24.75-18.016,54.878-29.494,84.811-34.891c1.606-0.288,0.923-2.732-0.678-2.444    c-30.053,5.413-60.55,17.043-85.417,35.144C169.027,274.971,170.291,277.173,171.619,276.21L171.619,276.21z"
                style="fill: #70885d;"></path>
            <path
                d="M163.438,242.496c21.756-21.947,37.858-50.365,47.749-79.428c0.529-1.554-1.92-2.215-2.447-0.677    c-9.727,28.583-25.691,56.714-47.096,78.312C160.491,241.865,162.286,243.661,163.438,242.496L163.438,242.496z"
                style="fill: #70885d;"></path>
            <path
                d="M185.697,331.292c21.333-7.406,45.087-9.462,67.408-10.943c67.404-4.474,135.345,6.244,200.376,23.311    c1.678,0.438,2.388-2.152,0.714-2.591c-64.402-16.9-130.922-26.988-197.632-23.605c-23.594,1.196-49.059,3.421-71.581,11.239    C183.357,329.266,184.057,331.859,185.697,331.292L185.697,331.292z"
                style="fill: #70885d;"></path>
            <path
                d="M364.039,323.912c0,0,19.698,44.443,3.384,61.508c-18.744,19.594-48.22-26.944-25.612-64.651    L364.039,323.912z"
                style="fill: #70885d;"></path>
            <path d="M430.061,334.482c0,0,58.503-0.746,51.456,21.646C473.706,380.976,430.061,334.482,430.061,334.482z"
                style="fill: #70885d;"></path>
            <path
                d="M314.888,318.36c0,0,38.48-40.789,28.19-64.908c-11.828-27.696-64.909,16.021-56.146,64.059    L314.888,318.36z"
                style="fill: #70885d;"></path>
            <path
                d="M398.387,329.634c0,0,43.235-36.771,25.245-44.876c-21.294-9.592-40.886,6.798-37.853,43.428    L398.387,329.634z"
                style="fill: #70885d;"></path>
            <path
                d="M422.789,335.895c11.244,3.815,44.494-7.005,42.232-21.957c-1.8-11.857-13.502-14.505-23.221-10.728    c-12.25,4.751-21.565,18.778-27.651,29.74C414.149,332.951,422.779,335.892,422.789,335.895z"
                style="fill: #70885d;"></path>
            <path
                d="M413.933,331.961c2.406,0.787,9.088,22.845,10.888,26.512c3.551,7.239,9.797,21.377,19.551,21.462    c14.423,0.133,12.936-13.758,8.551-23.27c-4.95-10.738-14.773-17.555-25.973-21.224    C426.943,335.44,414.426,332.772,413.933,331.961z"
                style="fill: #70885d;"></path>
            <path
                d="M61.271,323.128c10.515-23.655,15.025-50.674,18.66-76.06C90.193,175.4,84.823,102.016,72.39,31.001    c-0.323-1.846-3.126-1.062-2.806,0.771c12.57,71.792,17.425,145.5,7.06,217.898c-3.43,23.954-7.965,49.676-17.883,71.99    C58.005,323.358,60.511,324.838,61.271,323.128L61.271,323.128z"
                style="fill: #70885d;"></path>
            <path
                d="M82.771,130.005c0,0-46.199-25.289-66.098-9.219c-22.853,18.462,25.494,54.916,68.244,33.916    L82.771,130.005z"
                style="fill: #70885d;"></path>
            <path
                d="M85.665,187.005c0,0,46.175-37.881,71.282-24.581c28.833,15.276-23.177,68.631-74.245,54.812    L85.665,187.005z"
                style="fill: #70885d;"></path>
            <path
                d="M78.969,75.921c-0.635-2.677-24.208-12.388-28.009-14.666c-7.494-4.49-22.192-12.517-21.399-23.055    c1.162-15.578,16.031-12.719,25.896-7.12c11.146,6.32,17.616,17.535,20.562,29.962C76.025,61.046,78.186,75.855,78.969,75.921z"
                style="fill: #70885d;"></path>
            <path
                d="M75.16,65.497c-3.106-12.486,11.588-47.404,27.527-43.607c12.641,3.012,14.438,15.887,9.48,26.035    C105.926,60.72,89.936,69.508,77.549,75.09C77.549,75.09,75.163,65.506,75.16,65.497z"
                style="fill: #70885d;"></path>
            <path
                d="M79.707,92.406c0,0,43.617-43.352,50.736-23.193c8.425,23.857-11.045,43.534-50.312,36.941L79.707,92.406z    "
                style="fill: #70885d;"></path>
            <path d="M77.089,59.908c0,0,16.976-61.073-8.434-59.891C40.459,1.325,77.089,59.908,77.089,59.908z"
                style="fill: #70885d;"></path>
        </g>
        <g id="__id1672_sczlvvi61p">
            <path
                d="M207.057,173.702c0,0,48.057-27.227,38.578-37.426c-4.096-4.403-6.592-1.531-8.49-2.936    c-1.747-1.293,4.746-8.027-1.881-11.328c-5.213-2.613-6.484,4.244-9.037,2.537c-1.121-0.75,2.582-3.497-2.574-6.207    C212.571,112.541,195.654,159.86,207.057,173.702z"
                style="fill: #b2def0;"></path>
            <path
                d="M286.802,148.939c-0.185-2.303-1.285-2.833-2.61-2.594c0.818-1.177,0.798-2.484-1.235-3.577    c-1.335-0.717-2.237-0.429-2.858,0.318c-0.057-1.786-0.85-3.049-3.338-2.348c-1.673,0.472-2.237,1.418-2.215,2.523    c-1.02-0.303-2.07-0.053-2.949,1.232c-0.707,1.036-0.68,1.83-0.245,2.447c-0.824,0.253-1.492,0.831-1.834,1.956    c-0.555,1.837,0.446,2.789,1.986,3.149c-0.718,1.016-0.668,2.24,0.7,3.496c1.295,1.188,2.365,1.139,3.235,0.501    c0.108,1.303,1.043,2.249,3.493,2.169c1.916-0.063,2.689-0.899,2.853-2.031c0.787,0.186,1.747-0.133,2.893-1.287    c1.091-1.099,1.19-2.009,0.768-2.756C286.361,151.698,286.943,150.705,286.802,148.939z M278.78,149.25    c-0.011-0.006-0.019-0.014-0.029-0.02c0.011-0.024,0.017-0.047,0.027-0.073C278.78,149.198,278.78,149.217,278.78,149.25z"
                style="fill: #b2def0;"></path>
            <path
                d="M319.674,195.415c-0.181-2.301-1.283-2.836-2.607-2.597c0.814-1.176,0.794-2.48-1.239-3.572    c-1.332-0.72-2.233-0.434-2.855,0.313c-0.056-1.783-0.85-3.044-3.341-2.343c-1.67,0.467-2.231,1.413-2.213,2.52    c-1.018-0.302-2.066-0.053-2.948,1.235c-0.711,1.033-0.682,1.827-0.249,2.444c-0.82,0.252-1.492,0.83-1.831,1.956    c-0.557,1.837,0.447,2.79,1.987,3.148c-0.719,1.021-0.668,2.241,0.705,3.499c1.291,1.189,2.356,1.141,3.228,0.502    c0.112,1.302,1.043,2.249,3.499,2.169c1.913-0.063,2.685-0.9,2.851-2.036c0.787,0.19,1.745-0.129,2.89-1.281    c1.089-1.099,1.188-2.009,0.77-2.757C319.235,198.174,319.813,197.181,319.674,195.415z M311.65,195.728    c-0.009-0.009-0.019-0.015-0.025-0.021c0.007-0.022,0.017-0.046,0.025-0.072C311.65,195.674,311.65,195.695,311.65,195.728z"
                style="fill: #b2def0;"></path>
            <path
                d="M331.949,154.993c-0.325-4.125-2.299-5.085-4.677-4.657c1.462-2.108,1.424-4.449-2.218-6.408    c-2.395-1.285-4.012-0.771-5.125,0.571c-0.104-3.202-1.523-5.467-5.988-4.212c-3.001,0.844-4.01,2.541-3.971,4.526    c-1.826-0.544-3.706-0.095-5.287,2.209c-1.268,1.854-1.222,3.274-0.444,4.387c-1.476,0.448-2.67,1.485-3.282,3.5    c-0.997,3.294,0.798,5.009,3.56,5.653c-1.285,1.823-1.195,4.018,1.256,6.271c2.324,2.134,4.238,2.047,5.799,0.901    c0.199,2.335,1.87,4.031,6.269,3.888c3.436-0.111,4.824-1.62,5.115-3.652c1.411,0.336,3.132-0.232,5.184-2.301    c1.937-1.95,2.129-3.567,1.401-4.899C331.184,159.976,332.201,158.158,331.949,154.993z M317.562,155.55    c-0.018-0.01-0.033-0.022-0.054-0.036c0.017-0.044,0.033-0.09,0.054-0.137C317.562,155.447,317.562,155.486,317.562,155.55z"
                style="fill: #b2def0;"></path>
            <path d="M129.28,283.435c0,0-6.588,129.251-68.663,84.297C11.47,332.141,68.697,288.325,129.28,283.435z"
                style="fill: #b2def0;"></path>
            <path d="M132.372,282.624c0,0,81.843,100.13,4.978,108.4C53.632,400.021,107.9,299.828,132.372,282.624z"
                style="fill: #b2def0;"></path>
            <path
                d="M202.486,382.019c-7.127,7.266-11.154,14.902-8.971,17.053c2.174,2.146,9.746-2.022,16.898-9.295    c7.133-7.279,11.151-14.939,8.977-17.068C217.187,370.567,209.642,374.73,202.486,382.019z"
                style="fill: #b2def0;"></path>
            <path
                d="M259.193,327.774c0.89,9.983,4.035,17.856,7.032,17.596c2.994-0.264,4.701-8.582,3.816-18.566    c-0.899-9.979-4.044-17.852-7.027-17.59C260.01,309.479,258.308,317.785,259.193,327.774z"
                style="fill: #b2def0;"></path>
            <path d="M128.249,303.534c0,0-108.34-84.371-35.629-114.241C170.989,157.111,128.249,303.534,128.249,303.534z"
                style="fill: #b2def0;"></path>
            <path
                d="M136.39,275.086c0.382,0.121-118.605-26.563-120.473,28.392    C13.665,369.625,136.351,309.684,136.39,275.086z"
                style="fill: #b2def0;"></path>
            <path d="M128.158,287.377c0,0-122.955,15.869-98.683-44.402C53.741,182.7,136.248,267.289,128.158,287.377z"
                style="fill: #b2def0;"></path>
            <path
                d="M255.394,98.324c-2.432-8.491-2.291-15.791,0.325-16.296c2.604-0.498,6.693,5.994,9.146,14.496    c2.432,8.505,2.28,15.814-0.319,16.309C261.93,113.321,257.837,106.838,255.394,98.324z"
                style="fill: #b2def0;"></path>
            <path
                d="M358.341,218.722c7.161-4.121,14.123-5.62,15.55-3.338c1.418,2.278-3.241,7.476-10.401,11.599    c-7.17,4.121-14.127,5.614-15.541,3.346C346.52,228.036,351.176,222.851,358.341,218.722z"
                style="fill: #b2def0;"></path>
            <path
                d="M148.439,39.072c-8.172-6.769-12.988-14.098-10.734-16.372c2.241-2.263,10.705,1.397,18.902,8.162    c8.178,6.781,12.992,14.128,10.75,16.383C165.092,49.505,156.641,45.853,148.439,39.072z"
                style="fill: #b2def0;"></path>
            <path
                d="M180.385,58.017c2.877-9.547,7.764-16.581,10.92-15.698c3.143,0.884,3.365,9.352,0.492,18.903    c-2.886,9.558-7.77,16.578-10.905,15.698C177.723,76.031,177.512,67.575,180.385,58.017z"
                style="fill: #b2def0;"></path>
            <path
                d="M71.129,160.323c-7.227,7.771-14.818,12.158-16.963,9.78c-2.127-2.371,2.013-10.61,9.238-18.405    c7.238-7.773,14.846-12.16,16.973-9.793C82.504,144.299,78.371,152.528,71.129,160.323z"
                style="fill: #b2def0;"></path>
            <path
                d="M69.867,112.149c-9.911-1.14-17.697-4.697-17.391-7.96c0.314-3.248,8.608-4.972,18.518-3.839    c9.918,1.142,17.695,4.701,17.385,7.942C88.062,111.568,79.783,113.278,69.867,112.149z"
                style="fill: #b2def0;"></path>
            <path d="M123.237,290.083c0,0-32.228-125.342,40.423-100.929C221.18,208.483,179.61,267.362,123.237,290.083z"
                style="fill: #b2def0;"></path>
            <path d="M125.972,275.65c0,0,132.589,35.728,77.162,91.468C143.39,427.185,125.972,275.65,125.972,275.65z"
                style="fill: #b2def0;"></path>
            <path d="M117.672,296.118c0,0,124.106,0.819,106.539-63.003C206.65,169.303,107.399,263.08,117.672,296.118z"
                style="fill: #b2def0;"></path>
            <path
                d="M130.753,285.986c0,0,112.638-51.789,107.431,12.978C232.983,363.731,129.017,307.572,130.753,285.986z"
                style="fill: #b2def0;"></path>
        </g>
        <g id="__id1673_sczlvvi61p">
            <path
                d="M205.26,175.536c0,0,58.453,16.595,45.066,0.747c-13.392-15.838,11.695-11.666,8.107-17.961    C254.848,152.028,227.619,149.718,205.26,175.536z"
                style="fill: #d7bd98;"></path>
            <path d="M60.617,367.732c-51.181-36.588,13.523-82.795,74.106-87.685" style="fill: #d7bd98;">
            </path>
            <path d="M137.349,391.024c-83.717,8.997-29.638-94.088-5.166-111.294" style="fill: #d7bd98;">
            </path>
            <path d="M92.62,189.293c78.37-32.182,35.629,114.241,35.629,114.241" style="fill: #d7bd98;">
            </path>
            <path d="M29.475,242.975c24.794-61.331,106.46,25.002,97.413,46.112" style="fill: #d7bd98;">
            </path>
            <path d="M139.485,283.857c0,0-126.217-42.38-123.568,23.867" style="fill: #d7bd98;"></path>
            <path
                d="M282.797,323.542c12.739,2.993,23.771,2.332,24.674-1.489c0.897-3.822-8.693-9.35-21.433-12.354    c-12.731-2.996-23.787-2.318-24.693,1.503C260.448,315.026,270.052,320.548,282.797,323.542z"
                style="fill: #d7bd98;"></path>
            <path
                d="M221.701,396.819c5.952,11.664,13.618,19.661,17.122,17.866c3.494-1.792,1.5-12.683-4.463-24.337    c-5.969-11.645-13.638-19.638-17.111-17.847C213.731,374.289,215.733,385.186,221.701,396.819z"
                style="fill: #d7bd98;"></path>
            <path
                d="M368.351,226.789c11.186,1.815,20.04,5.984,19.793,9.324c-0.253,3.341-9.517,4.586-20.702,2.775    c-11.179-1.809-20.048-5.993-19.801-9.343C347.888,226.209,357.16,224.968,368.351,226.789z"
                style="fill: #d7bd98;"></path>
            <path
                d="M269.466,92.681c6.169-8.917,13.557-14.513,16.513-12.514c2.95,2.007,0.326,10.837-5.851,19.747    c-6.181,8.9-13.575,14.502-16.505,12.504C260.662,110.418,263.282,101.578,269.466,92.681z"
                style="fill: #d7bd98;"></path>
            <path
                d="M157.963,24.389c0.062-13.024,3.588-23.586,7.873-23.608c4.284-0.014,7.678,10.518,7.604,23.546    c-0.092,13.015-3.621,23.585-7.881,23.592C161.269,47.946,157.865,37.405,157.963,24.389z"
                style="fill: #d7bd98;"></path>
            <path
                d="M195.848,56.908c11.359-7.508,22.63-10.998,25.191-7.797c2.561,3.204-4.562,11.886-15.92,19.401    c-11.352,7.505-22.645,10.998-25.217,7.79C177.345,73.108,184.475,64.42,195.848,56.908z"
                style="fill: #d7bd98;"></path>
            <path
                d="M242.509,242.952c0,0,33.389,50.76,33.611,30.021c0.222-20.747,16.475-1.19,17.876-8.29    C295.397,257.571,276.298,238.023,242.509,242.952z"
                style="fill: #d7bd98;"></path>
            <path
                d="M242.057,244.605c0,0-7.588-60.152,6.065-44.531c13.648,15.619,13.292-9.807,18.972-5.316    C272.783,199.247,270.95,226.392,242.057,244.605z"
                style="fill: #d7bd98;"></path>
            <path
                d="M66.148,96.51c-9.41-9.847-14.845-20.314-12.15-23.405c2.699-3.089,12.508,2.381,21.918,12.221    c9.407,9.84,14.85,20.334,12.148,23.433C85.371,111.842,75.559,106.37,66.148,96.51z"
                style="fill: #d7bd98;"></path>
            <path
                d="M57.008,149.877c-13-0.813-23.345-4.94-23.119-9.219c0.233-4.276,10.942-7.06,23.939-6.239    c12.99,0.84,23.341,4.971,23.104,9.223C80.711,147.929,69.996,150.718,57.008,149.877z"
                style="fill: #d7bd98;"></path>
            <path
                d="M244.802,241.327c0,0,34.144-43.414,42.806-32.516c3.731,4.71,0.517,6.752,1.626,8.837    c1.01,1.927,8.647-3.479,10.919,3.571c1.793,5.542-5.174,5.768-3.875,8.548c0.573,1.225,3.849-2.025,5.741,3.475    C306.091,245.07,256.771,254.681,244.802,241.327z"
                style="fill: #b2def0;"></path>
            <path d="M163.66,189.154c60.608,20.157,11.764,83.063-44.609,105.785" style="fill: #d7bd98;">
            </path>
            <path d="M203.134,367.118c-59.744,60.067-77.162-91.468-77.162-91.468" style="fill: #d7bd98;">
            </path>
            <path d="M238.184,298.963c-5.416,66.014-108.462,6.598-106.728-14.988" style="fill: #d7bd98;">
            </path>
            <path d="M113.37,292.72c0,0,129.066,7.425,110.841-59.605" style="fill: #d7bd98;"></path>
        </g>
        <g id="__id1674_sczlvvi61p">
            <path
                d="M205.912,175.883c4.475-7.285,12.716-11.545,20.75-7.097c0.568,0.316,1.076-0.555,0.508-0.868    c-8.509-4.713-17.326-0.363-22.129,7.454C204.701,175.93,205.572,176.436,205.912,175.883L205.912,175.883z"
                style="fill: rgb(255, 255, 255);"></path>
            <path
                d="M205.594,175.887c4.471-8.017,3.944-17.834-4.326-22.943c-0.555-0.342-1.06,0.527-0.508,0.869    c7.817,4.833,8.127,14.101,3.965,21.563C204.408,175.945,205.275,176.452,205.594,175.887L205.594,175.887z"
                style="fill: rgb(255, 255, 255);"></path>
            <path
                d="M222.984,156.052c-0.619,0.255-1.33-0.036-1.585-0.655c-0.253-0.613,0.037-1.329,0.656-1.59    c0.618-0.25,1.326,0.047,1.583,0.657C223.896,155.085,223.603,155.796,222.984,156.052z"
                style="fill: rgb(255, 255, 255);"></path>
            <path
                d="M221.83,149.675c-0.619,0.255-1.328-0.033-1.587-0.654c-0.257-0.617,0.036-1.321,0.654-1.58    c0.618-0.256,1.325,0.036,1.583,0.65C222.734,148.715,222.446,149.426,221.83,149.675z"
                style="fill: rgb(255, 255, 255);"></path>
            <path
                d="M215.604,150.782c-0.619,0.256-1.322-0.033-1.584-0.654c-0.256-0.621,0.036-1.326,0.656-1.585    c0.618-0.255,1.324,0.037,1.581,0.655C216.514,149.811,216.221,150.522,215.604,150.782z"
                style="fill: rgb(255, 255, 255);"></path>
            <path
                d="M206.068,175.4c3.976-7.171,7.949-14.341,11.922-21.507c0.316-0.571-0.553-1.079-0.868-0.512    c-3.974,7.17-7.949,14.34-11.922,21.507C204.883,175.459,205.754,175.967,206.068,175.4L206.068,175.4z"
                style="fill: rgb(255, 255, 255);"></path>
            <path
                d="M278.474,149.88c0.304,0.291,0.791,0.267,1.092-0.056c0.303-0.315,0.299-0.804-0.003-1.096    c-0.306-0.286-0.796-0.262-1.097,0.058C278.169,149.104,278.169,149.592,278.474,149.88z"
                style="fill: rgb(255, 255, 255);"></path>
            <path
                d="M311.345,196.358c0.305,0.288,0.793,0.266,1.097-0.056c0.298-0.317,0.298-0.806-0.009-1.097    c-0.301-0.286-0.79-0.264-1.095,0.056C311.041,195.579,311.042,196.069,311.345,196.358z"
                style="fill: rgb(255, 255, 255);"></path>
            <path
                d="M317.01,153.283c0.548,0.514,1.425,0.468,1.966-0.101c0.538-0.568,0.534-1.448-0.009-1.962    c-0.548-0.516-1.423-0.475-1.963,0.096C316.465,151.887,316.465,152.764,317.01,153.283z"
                style="fill: rgb(255, 255, 255);"></path>
            <path
                d="M242.793,243.084c8.392-3.535,14.201-11.608,10.77-20.719c-0.226-0.604-1.198-0.344-0.968,0.264    c3.224,8.572-2.204,16.17-10.071,19.483C241.938,242.36,242.194,243.336,242.793,243.084L242.793,243.084z"
                style="fill: rgb(255, 255, 255);"></path>
            <path
                d="M243.593,243.184c8.061-3.022,17.22-1.303,20.815,7.212c0.25,0.596,1.115,0.08,0.868-0.51    c-3.752-8.892-13.462-10.854-21.952-7.673C242.723,242.439,242.984,243.412,243.593,243.184L243.593,243.184z"
                style="fill: rgb(255, 255, 255);"></path>
            <path
                d="M264.652,228.235c-0.353,0.575-0.172,1.316,0.405,1.661c0.571,0.346,1.315,0.162,1.668-0.409    c0.342-0.574,0.159-1.31-0.413-1.66C265.734,227.478,264.999,227.665,264.652,228.235z"
                style="fill: rgb(255, 255, 255);"></path>
            <path
                d="M270.776,230.337c-0.35,0.572-0.168,1.312,0.406,1.664c0.57,0.35,1.318,0.166,1.671-0.408    c0.338-0.571,0.157-1.318-0.417-1.663C271.866,229.581,271.116,229.767,270.776,230.337z"
                style="fill: rgb(255, 255, 255);"></path>
            <path
                d="M268.75,236.322c-0.353,0.574-0.166,1.322,0.408,1.667c0.574,0.346,1.308,0.159,1.671-0.404    c0.339-0.578,0.158-1.325-0.419-1.667C269.839,235.573,269.095,235.75,268.75,236.322z"
                style="fill: rgb(255, 255, 255);"></path>
            <path
                d="M243.294,242.998c7.682-2.85,15.367-5.702,23.051-8.556c0.605-0.222,0.347-1.194-0.265-0.969    c-7.686,2.849-15.37,5.702-23.055,8.555C242.422,242.25,242.683,243.223,243.294,242.998L243.294,242.998z"
                style="fill: rgb(255, 255, 255);"></path>
            <circle cx="129.717" cy="284.732" r="12" style="fill: rgb(255, 255, 255);"></circle>
        </g>
        <g id="__id1675_sczlvvi61p">
            <path
                d="M205.957,178.063c0,0-45.164-40.646-24.627-37.746c20.541,2.9,3.654-16.109,10.888-16.426    C199.455,123.573,215.912,145.395,205.957,178.063z"
                style="fill: #d7bd98;"></path>
            <path
                d="M164.764,73.935c0,3.56-2.887,6.445-6.447,6.445s-6.447-2.886-6.447-6.445c0-3.564,2.887-6.45,6.447-6.45    S164.764,70.371,164.764,73.935z"
                style="fill: #d7bd98;"></path>
            <path
                d="M489.878,327.284c0,3.561-2.886,6.446-6.449,6.446c-3.56,0-6.443-2.886-6.443-6.446    c0-3.564,2.884-6.45,6.443-6.45C486.993,320.833,489.878,323.719,489.878,327.284z"
                style="fill: #d7bd98;"></path>
            <path
                d="M15.134,228.665c0,3.559-2.886,6.444-6.447,6.444c-3.561,0-6.446-2.886-6.446-6.444    c0-3.563,2.886-6.449,6.446-6.449C12.248,222.215,15.134,225.101,15.134,228.665z"
                style="fill: #d7bd98;"></path>
            <circle cx="262.037" cy="366.39" r="6.448" style="fill: #d7bd98;"></circle>
            <path
                d="M248.619,354.489c0,1.978-1.607,3.585-3.588,3.585c-1.979,0-3.588-1.607-3.588-3.585    c0-1.983,1.608-3.592,3.588-3.592C247.012,350.897,248.619,352.505,248.619,354.489z"
                style="fill: #d7bd98;"></path>
            <circle cx="173.433" cy="92.638" r="3.587" style="fill: #d7bd98;"></circle>
            <circle cx="328.348" cy="227.153" r="3.586" style="fill: #d7bd98;"></circle>
            <circle cx="265.436" cy="123.248" r="3.586" style="fill: #d7bd98;"></circle>
            <path
                d="M498.567,344.29c0,1.979-1.609,3.586-3.587,3.586c-1.979,0-3.587-1.606-3.587-3.586    c0-1.981,1.607-3.591,3.587-3.591C496.958,340.699,498.567,342.308,498.567,344.29z"
                style="fill: #d7bd98;"></path>
            <circle cx="3.588" cy="215.065" r="3.588" style="fill: #d7bd98;"></circle>
            <path
                d="M100.692,5.925c0,1.979-1.608,3.586-3.589,3.586c-1.979,0-3.586-1.606-3.586-3.586    c0-1.983,1.607-3.59,3.586-3.59C99.084,2.335,100.692,3.942,100.692,5.925z"
                style="fill: #d7bd98;"></path>
        </g>
    </g>
</svg>