<svg xmlns="http://www.w3.org/2000/svg" viewBox="0 0 274.5 359.6" aria-label="Flowers">
    <path
        d="M.2 73.3c-.7-2.1.4-4.4 2.5-5.1s4.4.4 5.1 2.5c0 0 .1.3.3 1 .1.3.2.7.4 1.2.1.3.2.5.3.8.1.2.2.5.3.8.8 2.3 2.4 5.8 4.7 10.1 1.2 2.1 2.5 4.5 4.2 6.9 1.7 2.4 3.5 5 5.7 7.7 4.3 5.4 9.6 11.1 15.8 17 3.2 2.9 6.5 5.9 10 8.9 3.5 3.1 7.3 6.1 11.1 9.2 7.7 6.2 16 12.6 24.4 19.5 8.4 7 17 14.5 24.3 23.8 3.6 4.7 6.9 9.9 9.1 15.7 1.1 2.9 1.9 6 2.4 9.1s.6 6.3.4 9.5l-.1 1.2-.2 1.2c-.1.7-.2 1.5-.4 2.3l-.2 1.2-.1.6v.1s-.1.4-.1.3l-.1.3-.6 2.1-.6 2.1c-.2.7-.6 1.5-.8 2.2-.5 1.5-1 3-1.7 4.4-2.4 5.6-5.9 10.9-10.4 15.2-.6.5-1.1 1.1-1.7 1.6l-1.8 1.4c-1.2 1-2.5 1.8-3.8 2.6-.6.4-1.3.7-2 1.1l-2 1-2.1.8c-.7.3-1.4.6-2.1.8-5.8 1.8-11.8 2.4-17.5 1.8-5.7-.6-11.2-2.3-16.1-4.8-4.9-2.6-9.2-6-12.5-10.2-3.3-4.1-5.4-9-6.2-14-.1-.7-.3-1.3-.3-1.9 0-.7-.1-1.3-.1-1.9V221.6v-2.5l.1-.9c.1-.6.1-1.2.2-1.8.1-1.2.3-2.3.5-3.4s.5-2.2.8-3.3c.4-1.1.7-2.2 1.2-3.2.7-2 1.9-3.9 3.1-5.7 2.5-3.5 5.8-6.2 9.4-7.9 3.5-1.8 7.3-2.3 10.7-2.3 3.4.1 6.6.9 9.2 2.1 2.7 1.2 4.8 2.8 6.5 4.4s2.8 3.3 3.7 4.6c.8 1.4 1.3 2.5 1.6 3.3s.5 1.2.5 1.2c0 .1.1.3.1.4.5 2.1-.7 4.2-2.7 4.7-2.1.5-4.2-.7-4.7-2.7l-.1-.3s-.1-.3-.2-.8c-.1-.6-.4-1.4-.8-2.4-.5-.9-1.1-2.2-2.2-3.4-1.1-1.2-2.5-2.5-4.4-3.5-1.9-1.1-4.3-1.9-6.9-2.1-1.3-.1-2.7-.2-4.1.1-.8 0-1.5.3-2.2.4-.7.3-1.5.5-2.2.8-2.9 1.2-5.6 3.3-7.8 6.1s-3.8 6.4-4.6 10.4c-.2 1-.4 2-.5 3-.1.5-.1 1-.2 1.5l-.1.8v.8c-.1.6-.1 1.1-.1 1.7v.5c0 .1 0 0 0 0v.2l.1.8c0 .5.1 1.1.1 1.6s.1 1.1.2 1.6c.7 4.3 2.5 8.5 5.5 12s6.9 6.5 11.3 8.6c4.4 2 9.4 3.2 14.4 3.5 5.1.2 10.2-.5 15-2.3 4.8-1.7 9.1-4.7 12.7-8.4 3.6-3.7 6.4-8.2 8.5-13.1.6-1.2 1-2.5 1.4-3.7.2-.7.4-1.2.6-1.9l.5-2.1.5-2.1.1-.3c0-.2 0 .1 0 0v-.1l.1-.5.2-1c.1-.6.2-1.3.3-1.9l.1-1 .1-1c.4-5.1-.4-10.4-2.2-15.3-.9-2.5-2-4.9-3.3-7.2-1.3-2.3-2.8-4.6-4.4-6.8-6.4-8.8-14.5-16.4-22.5-23.5-8.1-7.1-16.2-13.7-23.9-20C49.3 132 42 125.9 35.6 120c-6.5-5.9-12.1-11.7-16.8-17.1-4.7-5.5-8.4-10.6-11.2-15-2.8-4.4-4.7-8-5.9-10.7-.1-.3-.3-.6-.4-.9-.1-.3-.2-.6-.3-.8-.2-.5-.4-.9-.5-1.2-.3-.7-.4-1-.3-1-.1-.1-.2-.2 0 0zM224.1 59.6c-.3-1.9 1-3.6 3.2-4.1 1.8-.2 3.5 1.1 3.7 2.9 0 0 .1 1.1.4 3.3 0 .5.1 1.1.2 1.8s.1 1.5.1 2.4.1 1.8.1 2.8c.1.5 0 1 0 1.5s-.1 1.1-.1 1.6c-.2 4.4-1.2 9.6-3.2 15.3-2.1 5.7-5.4 11.8-10.1 17.4-4.7 5.7-10.7 10.9-17.8 15.3-7 4.4-15.2 7.8-23.9 10.1s-18 3.5-27.5 3.3-19-1.8-28.2-4.7l-1.7-.5-1.7-.6-3.4-1.3c-1.1-.4-2.2-.9-3.3-1.4l-3.3-1.5c-2.1-1.1-4.2-2.3-6.3-3.4l-3-1.9-1.5-.9-.8-.5-.4-.2-.4-.3c-1.9-1.4-3.8-2.7-5.6-4.1-1-.8-1.9-1.5-2.8-2.3-1-.7-1.9-1.5-2.7-2.3-1.7-1.6-3.4-3.1-4.9-4.9-.8-.9-1.5-1.8-2.3-2.6l-2.1-2.7c-2.8-3.5-5.2-7.4-7.3-11.2-2-3.9-3.8-7.8-5-11.8-.7-1.9-1.2-3.9-1.7-5.9-.3-.9-.5-1.9-.7-2.9-.2-1-.4-1.9-.6-2.9-.6-3.9-1.1-7.7-1.2-11.3-.2-3.6-.1-7.1 0-10.4.1-1.6.2-3.2.4-4.8.1-1.5.3-3.1.5-4.5.8-5.8 2-10.8 3.1-14.9 1.2-4 1.9-7.3 2.4-9.6.4-2.3.7-3.6.7-3.7 1.3-2.8 4.7-4 7.5-2.7s4 4.7 2.7 7.5c0-.1-.8.7-1.9 2.5-1.2 1.8-2.6 4.5-3.8 8.3-1.1 3.7-2.4 8.4-3.4 13.8-1 5.5-1.7 11.6-1.6 18.4.1 6.7 1 14 3.3 21.4 1 3.7 2.7 7.4 4.4 11 1.9 3.5 4 7.1 6.6 10.4.6.8 1.2 1.7 1.9 2.5l2.1 2.4c1.4 1.6 3.1 3.1 4.6 4.6.7.7 1.6 1.4 2.4 2.1s1.7 1.4 2.5 2.1c.4.3.8.7 1.3 1l1.4 1c.9.7 1.9 1.3 2.8 2l.2.1.1.1s-.1-.1 0 0l.4.2.7.4 1.4.9 2.9 1.8c2 1.1 4 2.2 6 3.2l3.1 1.4c1 .4 2 .9 3.1 1.3l3.2 1.2 1.6.6 1.6.5c8.6 2.8 17.7 4.3 26.6 4.5 8.9.2 17.7-.9 25.9-3.1s15.8-5.5 22.3-9.6c6.6-4.1 12.1-8.9 16.3-14.1s7.1-10.7 8.8-15.7 2.5-9.7 2.6-13.5c.1-.5.1-.9.1-1.4V69c0-.8-.1-1.6-.1-2.3s0-1.4-.1-2c-.1-.7-.2-1.3-.3-1.8-.3-2.1-.5-3.3-.5-3.3s0-.1 0 0z"
        fill="#3c5947" />
    <path
        d="M59.9 247.5s13.2 3.8 18.7 14.2 1.2 23.5 1.2 23.5-13.2-3.8-18.7-14.2-1.2-23.5-1.2-23.5zM131.4 316.7s-12.6 5.5-23.5 1.1-16-17.2-16-17.2 12.6-5.5 23.5-1.1c10.9 4.5 16 17.2 16 17.2zM96.9 176.2s-18.6 9.7-35.8 4-26.2-24.8-26.2-24.8 18.7-9.8 35.8-4 26.2 24.8 26.2 24.8zM132.3 322.7s3.8 13.2-2.1 23.4-19.3 13.5-19.3 13.5-3.8-13.2 2.1-23.4 19.3-13.5 19.3-13.5zM112.9 186.9s18.3-8.8 34.6-2.7c16.2 6.1 24.3 24.7 24.3 24.7s-18.3 8.8-34.6 2.7c-16.3-6.1-24.3-24.7-24.3-24.7zM51.2 241.5s-12.6 5.5-23.5 1-15.9-17.3-15.9-17.3 12.6-5.5 23.5-1 15.9 17.3 15.9 17.3zM112.9 229.2s0 .1.2.3c.1.2.3.5.5.9s.4.8.5 1.4c.1.3.1.6.2.9.1.2.2.5.2.8.1.6 0 1.2 0 1.9s.1 1.5.1 2.3c.1.8.2 1.7.4 2.6.1.4.2.9.3 1.4.1.5.2 1 .4 1.5.3 1 .6 2 1.1 3.1.4 1.1 1 2.2 1.5 3.3 1.1 2.2 2.4 4.6 4 6.9 1.6 2.4 3.3 4.8 5.1 7.2 1.9 2.4 3.7 4.8 5.6 7.3 1 1.3 1.9 2.5 2.8 3.8.9 1.3 1.8 2.6 2.6 3.9 1.6 2.7 3.1 5.4 4.2 8.3.3.8.6 1.5.8 2.2.2.8.4 1.5.6 2.2.3 1.4.6 2.9.7 4.3.1.7.2 1.4.2 2.1v3.1c0 .3-.1.7-.1 1-.1.6-.1 1.3-.2 1.9-.2 1.2-.5 2.4-.7 3.5s-.6 2.1-.9 3.1c-.3.9-.7 1.8-1 2.6-.3.8-.6 1.5-.9 2.2-1.3 2.5-2 4-2 4 0 .1-.1.3-.2.4-1.1 1.6-3.3 2-4.9.9-1.6-1.1-2-3.3-.9-4.9l.1-.2.6-.9c.3-.5.9-1.3 1.6-2.4.3-.5.6-1.1 1-1.8s.8-1.4 1.1-2.2.7-1.6 1-2.5c.2-.9.6-1.9.8-2.9.4-2 .8-4.3.6-6.7 0-1.2-.2-2.4-.4-3.7-.2-.6-.3-1.3-.5-1.9-.2-.6-.4-1.3-.6-1.9-.4-1.2-.9-2.5-1.5-3.8s-1.2-2.6-2-3.8c-1.5-2.5-3.2-5-5-7.4-.9-1.2-1.9-2.4-2.8-3.6-1-1.2-1.9-2.3-2.9-3.5-2-2.4-3.9-4.7-5.7-7-1.9-2.3-3.5-4.7-4.9-7.1-.7-1.2-1.4-2.4-1.9-3.6-.3-.6-.6-1.2-.8-1.8l-.6-1.8c-.2-.6-.4-1.2-.5-1.8-.1-.6-.3-1.1-.4-1.7-.2-1.2-.3-2.3-.4-3.3v-2.9c0-.9.1-1.8.3-2.5.1-.3.2-.7.3-1 .1-.3.2-.6.4-.8.3-.5.7-.9 1-1.2s.6-.6.8-.7c.2-.1.3-.2.3-.2.3-.2.6-.1.8.2zM54.5 243.7s.5 13.7-7.7 22.2c-8.1 8.5-21.9 8.5-21.9 8.5s-.5-13.7 7.7-22.2c8.2-8.4 21.9-8.5 21.9-8.5zM168.4 107.3s-5.5 12.6-16.5 16.7-23.4-1.8-23.4-1.8 5.5-12.6 16.5-16.7c11.1-4.1 23.4 1.8 23.4 1.8zM161.3 154.5s-13.6 1.5-22.7-6-10.1-21.2-10.1-21.2 13.6-1.5 22.7 6 10.1 21.2 10.1 21.2zM118.4 126.7s-12.1-6.6-15.2-18 4-23.2 4-23.2 12.1 6.6 15.2 18c3.1 11.4-4 23.2-4 23.2zM274.3 54.7s-6.4 14.8-19.2 19.5c-12.8 4.8-27.3-2.1-27.3-2.1s6.3-14.7 19.2-19.5c12.8-4.8 27.3 2.1 27.3 2.1zM226 64.8s-12.5 10-26.1 8.3c-13.6-1.7-23.2-14.6-23.2-14.6s12.5-10 26.1-8.3c13.7 1.7 23.2 14.6 23.2 14.6z"
        fill="#70885d" />
    <path
        d="M232.4 112.8S220 102.6 219 88.9c-1-13.6 9.7-25.6 9.7-25.6s12.4 10.2 13.4 23.9-9.7 25.6-9.7 25.6zM227.8 139.8s-12.7 5.1-23.5.3-15.4-17.8-15.4-17.8 12.8-5.1 23.5-.3 15.4 17.8 15.4 17.8z"
        fill="#70885d" />
    <path
        d="M105.5 189.6c-25.6 61.7-66.5 20.8-4.8-4.8-61.7 25.6-61.7-32.4 0-6.8-61.7-25.6-20.8-66.5 4.8-4.8-25.6-61.7 32.4-61.7 6.8 0 25.6-61.7 66.5-20.8 4.8 4.8 61.7-25.6 61.7 32.4 0 6.8 61.7 25.6 20.8 66.5-4.8 4.8 25.5 61.7-32.4 61.7-6.8 0z"
        fill="#d7bd98" />
    <circle cx="108.9" cy="181.4" r="7.5" fill="#b2def0" />
    <path
        d="M224 66.6c-15.4 37.3-40.2 12.5-2.9-2.9-37.3 15.4-37.3-19.5 0-4.1-37.3-15.4-12.5-40.2 2.9-2.9-15.4-37.3 19.5-37.3 4.1 0 15.4-37.3 40.2-12.5 2.9 2.9 37.3-15.4 37.3 19.5 0 4.1 37.3 15.4 12.5 40.2-2.9 2.9 15.4 37.3-19.6 37.3-4.1 0z"
        fill="#d7bd98" />
    <circle cx="226" cy="61.7" r="4.5" fill="#b2def0" />
    <path
        d="M132.6 311.4c2.5-14.6 32.4-29 9.2-4.4 23.2-24.6 16.4 8-2.1 10 18.6-2 41.5 22 7.1 7.4 34.4 14.6 1.3 18.2-10.2 1.1 11.6 17.1-4.2 46.4-4.8 9 .6 37.4-13 7.1-4.2-9.3-8.9 16.4-41.6 10.5-10.1-1.8-31.5 12.3-6.8-10.1 7.6-6.9-14.5-3.2-18.9-36.1-1.4-10.1-17.5-26 11.4-9.5 8.9 5z"
        fill="#d7bd98" />
    <circle cx="132.6" cy="319.6" r="4.1" fill="#b2def0" />
    <g>
        <path
            d="M115.8 126.8c-14.6-2.7-28.5-32.9-4.3-9.3-24.2-23.6 8.3-16.4 10 2.2-1.7-18.5 22.6-41.1 7.5-6.9 15.2-34.2 18.3-1.1 1 10.2 17.3-11.3 46.3 4.9 8.9 5 37.4 0 6.9 13.2-9.4 4.1 16.3 9.1 9.8 41.7-2 10 11.8 31.6-10.2 6.7-6.8-7.7-3.4 14.4-36.4 18.3-10.1 1.2-26.3 17.2-9.4-11.5 5.2-8.8z"
            fill="#d7bd98" />
        <circle cx="123.9" cy="126.9" r="4.1" fill="#b2def0" />
    </g>
    <g>
        <path
            d="M59.6 242.8c10.2-5.9 34.4 5.2 7.4 3.4 27.1 1.8 3.5 14.2-7.2 3.8 10.7 10.4 7.5 36.9-1 8.1 8.5 28.8-10.6 10.2-5.9-5.7-4.7 15.9-30.8 21.1-8 1.6-22.8 19.5-11.1-4.4 3.6-7.3-14.6 3-27.7-20.3-4-7.1-23.7-13.2 2.7-9.4 8.1 1.2-5.4-10.5 12.7-30.1 5.6-6 7.1-24.2 11.6 2.1 1.4 8z"
            fill="#d7bd98" />
        <circle cx="54.6" cy="247" r="3.3" fill="#b2def0" />
    </g>
</svg>