<?xml version="1.0" encoding="UTF-8" standalone="yes"?>
<!-- Created with qrencode 4.1.1 (https://fukuchi.org/works/qrencode/index.html) -->
<svg width="11.64cm" height="11.64cm" viewBox="0 0 33 33" preserveAspectRatio="none" version="1.1"
	xmlns="http://www.w3.org/2000/svg">
	<g id="QRcode">
		<!-- <rect x="0" y="0" width="33" height="33" fill="#ffffff"/> -->
		<path style="stroke:#3c5947" transform="translate(4,4.5)" d="M0,0h7M11,0h4M18,0h7M0,1h1M6,1h1M9,1h2M16,1h1M18,1h1M24,1h1M0,2h1M2,2h3M6,2h1M12,2h1M14,2h3M18,2h1M20,2h3M24,2h1M0,3h1M2,3h3M6,3h1M8,3h1M12,3h1M16,3h1M18,3h1M20,3h3M24,3h1M0,4h1M2,4h3M6,4h1M8,4h2M14,4h3M18,4h1M20,4h3M24,4h1M0,5h1M6,5h1M11,5h3M16,5h1M18,5h1M24,5h1M0,6h7M8,6h1M10,6h1M12,6h1M14,6h1M16,6h1M18,6h7M10,7h2M0,8h2M5,8h3M9,8h1M11,8h1M14,8h2M20,8h2M2,9h3M7,9h3M12,9h2M15,9h1M19,9h4M2,10h1M5,10h3M10,10h1M14,10h2M18,10h1M23,10h2M0,11h1M2,11h3M8,11h2M12,11h3M17,11h2M21,11h1M1,12h1M3,12h2M6,12h4M11,12h2M14,12h4M20,12h4M0,13h3M5,13h1M8,13h1M13,13h5M19,13h3M0,14h1M3,14h2M6,14h1M8,14h2M11,14h3M15,14h4M21,14h2M0,15h1M3,15h1M5,15h1M9,15h1M11,15h1M14,15h2M17,15h1M19,15h2M22,15h3M0,16h1M5,16h7M13,16h1M16,16h5M22,16h1M24,16h1M8,17h1M10,17h1M12,17h1M15,17h2M20,17h4M0,18h7M8,18h4M15,18h2M18,18h1M20,18h1M22,18h3M0,19h1M6,19h1M8,19h1M10,19h1M12,19h1M14,19h1M16,19h1M20,19h3M24,19h1M0,20h1M2,20h3M6,20h1M9,20h2M12,20h1M16,20h5M24,20h1M0,21h1M2,21h3M6,21h1M9,21h1M14,21h2M17,21h1M20,21h1M22,21h3M0,22h1M2,22h3M6,22h1M10,22h3M15,22h1M18,22h2M24,22h1M0,23h1M6,23h1M8,23h2M11,23h1M15,23h1M17,23h1M19,23h1M21,23h2M0,24h7M8,24h1M10,24h1M12,24h3M23,24h2"/>
	</g>
</svg>
