<svg xmlns="http://www.w3.org/2000/svg" viewBox="0 0 380.939 350.707" aria-label="Christmas Wreath">
    <path
        d="M180.178 25.569c2.608.622 5.208 1.137 7.824 2.086 3.728 1.359 7.45 3.612 9.181 7.555 1.532 3.489 1.849 6.715 2.693 10.478l-.043.041c-2.609-.62-5.209-1.136-7.816-2.091-3.738-1.351-7.458-3.607-9.188-7.548-1.533-3.491-1.523-6.992-2.691-10.479M173.275 25.588c-.227 2.67-.348 5.317-.897 8.045-.789 3.889-2.461 7.904-6.101 10.205-3.224 2.036-6.366 2.828-9.96 4.222l-.049-.033c.228-2.672.348-5.322.905-8.043.777-3.898 2.456-7.911 6.095-10.208 3.221-2.036 6.686-2.549 9.961-4.223"
        fill="#3c5947" />
    <path
        d="M165.421 0c1.975 1.813 3.994 3.529 5.818 5.632 2.593 3 4.749 6.779 4.343 11.067-.362 3.793-1.656 6.766-2.75 10.463l-.057.016c-1.977-1.812-3.997-3.531-5.81-5.633-2.608-2.999-4.759-6.78-4.35-11.068.358-3.793 2.071-6.845 2.749-10.462M197.56 16.624c-1.061 1.597-2.052 3.215-3.338 4.738-1.834 2.166-4.269 4.108-7.347 4.296-2.725.165-4.971-.422-7.707-.788l-.017-.04c1.064-1.597 2.055-3.216 3.341-4.731 1.834-2.177 4.271-4.116 7.348-4.301 2.724-.166 5.07.708 7.705.787"
        fill="#3c5947" />
    <path
        d="M338.179 201.6c-1.171 6.962-1.279 17.685 6.099 21.505.343.178.646-.34.303-.518-7.122-3.688-6.953-14.103-5.822-20.828.062-.379-.516-.541-.58-.159z"
        fill="#3d5a48" />
    <path
        d="M337.05 207.933c-1.687 5.77-4.06 15.748 1.146 20.509.284.261.71-.162.424-.424-4.99-4.565-2.609-14.39-.991-19.925.109-.373-.47-.531-.579-.16zM333.515 220.43c-1.313 3.928-3.054 10.358.406 13.753.276.271.7-.152.424-.424-3.281-3.223-1.499-9.439-.252-13.17.123-.367-.456-.524-.578-.159z"
        fill="#3d5a48" />
    <path
        d="M332.339 223.88c-1.403 3.343-4.418 8.177-8.691 7.642-.384-.048-.38.554 0 .601 4.559.57 7.777-4.527 9.271-8.08.149-.358-.432-.513-.58-.163zM337.829 203.767c-1.524 5.877-6.125 15.525-13.733 14.49-.379-.051-.542.527-.16.578 7.99 1.088 12.843-8.625 14.473-14.91.095-.375-.484-.533-.58-.158z"
        fill="#3d5a48" />
    <path
        d="M335.795 212.539c-1.684 5.258-5.86 13.83-12.554 13.578-.387-.015-.386.586 0 .6 6.998.264 11.364-8.495 13.132-14.018.119-.369-.46-.526-.578-.16z"
        fill="#3d5a48" />
    <path
        d="M325.095 265.646c-1.407-2.232-4.348-3.507-6.943-3.085-.382.062-.22.64.159.578 2.32-.377 5.016.823 6.268 2.81.204.325.723.025.516-.303zM324.79 241.552c-2.103 5.787-10.968 8.382-16.285 5.822-.347-.168-.651.35-.303.518 5.688 2.738 14.919.007 17.166-6.18.132-.365-.448-.521-.578-.16zM296.985 270.729c2.137-3.854 7.258-2.408 10.685-1.521.375.099.534-.48.16-.578-3.718-.963-9.074-2.332-11.362 1.795-.188.34.329.642.517.304z"
        fill="#d7bd98" />
    <path
        d="M296.621 273.119c-.511 1.398-1.265 2.409-1.683 2.256-.42-.15-.348-1.41.162-2.811.51-1.396 1.264-2.408 1.685-2.255.419.153.345 1.413-.164 2.81z"
        fill="#d7bd98" />
    <ellipse transform="rotate(4.211 295.873 268.394)" cx="295.922" cy="268.295" rx="2.696" ry=".808" fill="#d7bd98" />
    <path
        d="M325.145 279.507c-6.604-1.629-6.617-9.514-6.632-15.021-.001-.387-.601-.387-.6 0 .014 5.808.17 13.896 7.071 15.599.377.093.536-.485.161-.578z"
        fill="#d7bd98" />
    <path
        d="M314.031 278.055c3.285-5.769 6.645-14.897 2.688-21.093-.207-.325-.727-.024-.518.303 3.812 5.973.479 14.924-2.689 20.486-.191.338.327.64.519.304zM338.878 255.708c-7.329 2.797-14.854-5.459-12.901-12.533.104-.373-.476-.531-.577-.159-2.067 7.487 5.875 16.233 13.64 13.271.356-.138.201-.718-.162-.579z"
        fill="#d7bd98" />
    <ellipse transform="rotate(-174.623 328.819 279.852)" cx="328.815" cy="279.861" rx="4.162" ry="1.249"
        fill="#d7bd98" />
    <ellipse transform="scale(-1) rotate(79.596 338.376 -386.408)" cx="321.925" cy="281.917" rx="4.163" ry="1.248"
        fill="#d7bd98" />
    <ellipse transform="rotate(-77.544 324.39 268.265)" cx="324.397" cy="268.275" rx="2.923" ry=".877" fill="#d7bd98" />
    <ellipse transform="rotate(-21.906 309.56 275.366)" cx="309.568" cy="275.381" rx="6.955" ry="2.085"
        fill="#d7bd98" />
    <ellipse transform="rotate(-178.015 305.41 247.995)" cx="305.414" cy="247.99" rx="4.004" ry="1.2" fill="#d7bd98" />
    <path
        d="M338.62 266.199c3.489 1.608 5.923 3.762 5.438 4.809-.484 1.045-3.7.59-7.188-1.021-3.486-1.611-5.924-3.766-5.439-4.812.484-1.047 3.701-.59 7.189 1.024zM344.107 252.212c3.702-1.03 6.953-.971 7.263.144.31 1.108-2.441 2.847-6.142 3.877-3.699 1.03-6.95.968-7.257-.14-.31-1.114 2.438-2.849 6.136-3.881z"
        fill="#d7bd98" />
    <path
        d="M325.685 240.548c-.584 5.117-2.359 10.107-1.714 15.305.568 4.564 4.119 7.605 7.818 9.834.332.2.634-.318.303-.518-10.479-6.315-6.938-14.701-5.808-24.621.045-.384-.556-.381-.599 0z"
        fill="#d7bd98" />
    <path
        d="M324.487 141.915c.927.69 1.854 1.333 2.757 2.157 1.287 1.174 2.513 2.704 2.874 4.586.326 1.665.214 3.022.262 4.679l-.021.012c-.928-.69-1.853-1.338-2.758-2.158-1.287-1.175-2.512-2.71-2.874-4.589-.323-1.667-.072-3.076-.263-4.677"
        fill="#3c5947" />
    <path
        d="M324.694 133.456c-.733 3.339-1.191 6.712-.138 10.023.088.276.522.158.435-.119-1.03-3.237-.58-6.518.137-9.785.062-.283-.372-.403-.434-.119zM343.636 131.587c.94-.264 1.849-.557 2.864-.738 1.449-.26 3.107-.291 4.556.432 1.282.638 2.135 1.411 3.269 2.232v.018c-.942.266-1.852.553-2.866.738-1.45.26-3.107.292-4.556-.433-1.283-.64-2.1-1.534-3.269-2.229M323.745 105.418c4.231 10.986 14.617 26.216 28.021 19.036.257-.137.029-.525-.227-.389-13.112 7.023-23.239-8.067-27.361-18.768-.103-.267-.538-.151-.433.121zM343.866 147.049c1.952.174 3.856.291 5.938.645 2.971.505 6.271 1.506 8.898 3.566 2.322 1.823 3.747 3.576 5.72 5.596l-.012.024c-1.952-.174-3.858-.289-5.939-.646-2.969-.503-6.269-1.504-8.895-3.565-2.325-1.823-3.642-3.748-5.723-5.596M363.754 177.537c1.569-.021 3.1-.084 4.788.03 2.405.162 5.119.694 7.379 2.121 2.001 1.265 3.281 2.546 5.019 3.999l-.011.021c-1.571.017-3.098.082-4.786-.033-2.405-.162-5.122-.691-7.381-2.121-2.004-1.266-3.207-2.692-5.016-3.994"
        fill="#3c5947" />
    <path
        d="M334.607 132.347c.996 4.655 3.52 15.302 10.259 14.924.288-.016.29-.466 0-.45-6.482.364-8.861-10.095-9.825-14.594-.061-.284-.495-.164-.434.12zM338.081 124.519c1.457 2.994 3.097 5.786 5.904 7.662.241.162.467-.228.227-.389-2.736-1.829-4.325-4.589-5.742-7.501-.128-.26-.515-.032-.389.228zM352.37 165.715c1.72 4.532 5.656 13.982 12.227 12.087.278-.08.16-.516-.119-.434-6.263 1.807-10.051-7.5-11.674-11.773-.102-.268-.538-.153-.434.12zM224.004 27.517c2.713-.167 5.894-.52 8.279-2.014 1.102-.692 2.278-1.89 2.815-3.104 1.586-3.585-2.604-5.97-5.152-3.932-2.314 1.857-4.629 4.351-6.875 5.719a16.198 16.198 0 01-8.217 2.374c-3.091.037 5.851 1.161 9.15.957z"
        fill="#3c5947" />
    <path
        d="M223.408 29.886c2.353 1.36 5.042 3.094 6.51 5.497.679 1.112 1.197 2.707 1.136 4.032-.182 3.918-4.994 4.185-6.363 1.224-1.246-2.695-2.203-5.962-3.604-8.188a16.209 16.209 0 00-6.295-5.792c-2.749-1.413 5.751 1.57 8.616 3.227zM330.31 182.917c.253 1.151.467 2.289.839 3.504.526 1.736 1.381 3.635 2.811 5.047 1.271 1.252 2.427 1.969 3.783 2.994l.015-.01c-.254-1.152-.466-2.285-.841-3.5-.524-1.736-1.376-3.638-2.809-5.049-1.269-1.255-2.519-1.892-3.78-2.998M353.775 178.555c-.245 1.153-.451 2.292-.816 3.509-.515 1.74-1.354 3.645-2.775 5.066-1.262 1.26-2.415 1.986-3.764 3.02l-.014-.008c.244-1.156.451-2.287.815-3.506.516-1.741 1.354-3.645 2.776-5.065 1.258-1.263 2.506-1.911 3.761-3.024"
        fill="#3c5947" />
    <path
        d="M340.24 158.951c-8.949 5.069-12.469 15.384-10.01 25.066.07.279.505.16.434-.12-2.408-9.484 1.06-19.605 9.803-24.558.252-.142.026-.531-.227-.388zM328.776 159.208c-2.396 2.083-4.667 4.18-7.416 6.213-3.921 2.898-8.793 5.63-14.144 6.385-4.737.67-8.383.363-12.954.404l-.016-.041c2.393-2.085 4.667-4.184 7.415-6.211 3.919-2.906 8.792-5.635 14.143-6.391 4.734-.67 8.461-.041 12.955-.401M351.172 124.142c1.98-.411 3.888-.86 6.074-1.144 3.115-.407 6.779-.466 10.261.624 3.081.966 5.255 2.128 8.085 3.37l-.002.029c-1.979.409-3.888.857-6.071 1.141-3.116.407-6.781.464-10.262-.625-3.083-.964-5.229-2.315-8.086-3.37M313.745 143.742c-3.47-.466-6.846-.827-10.581-1.616-5.325-1.125-11.349-3.132-16.412-6.912-4.481-3.346-7.366-6.49-11.276-10.144l.017-.047c3.473.469 6.848.832 10.579 1.618 5.33 1.125 11.351 3.134 16.414 6.911 4.482 3.346 7.214 6.783 11.277 10.147M259.392 40.886c3.692 2.029 7.258 4.173 11.297 5.819 5.754 2.343 12.424 3.597 18.504.705 5.379-2.563 9.064-6.091 13.918-9.714l-.004-.096c-3.691-2.028-7.26-4.174-11.293-5.817-5.761-2.343-12.432-3.599-18.504-.704-5.383 2.559-8.972 6.766-13.922 9.712M289.511 61.431c-1.703 2.859-3.494 5.616-4.902 8.758-2.01 4.479-3.184 9.713-1.063 14.591 1.874 4.318 4.562 7.325 7.288 11.256l.074.001c1.705-2.862 3.494-5.62 4.904-8.758 2.008-4.483 3.182-9.716 1.062-14.592-1.873-4.318-5.098-7.268-7.286-11.258M318.545 95.944c-1.962 1.872-3.972 3.644-5.764 5.8-2.559 3.079-4.623 6.927-4.028 11.221.528 3.799 1.976 6.746 3.259 10.43l.059.017c1.963-1.873 3.974-3.646 5.765-5.801 2.557-3.081 4.623-6.931 4.025-11.222-.521-3.799-2.409-6.819-3.254-10.429M310.426 83.74c1.533 1.328 2.999 2.697 4.733 3.881 2.476 1.685 5.492 2.95 8.646 2.197 2.793-.662 4.888-1.953 7.54-3.172l.008-.045c-1.536-1.329-3-2.7-4.732-3.881-2.479-1.686-5.493-2.948-8.647-2.199-2.795.663-4.911 2.283-7.541 3.171M137.418 33.292c-1.188 3.114-1.597 4.02-2.793 7.509-.049.136-.093.265-.138.399-4.175 7.606-12.45 9.616-20.999 11.924 9.164 4.741 15.638-4.66 20.066-9.275-.027.082-.407.093-.433.176-1.35 1.453-1.691 2.232-2.678 4.363-1.416 3.06-2.691 6.013-4.934 8.588-1.539 1.768-3.084 3.03-4.967 4.021-1.27.666-2.633 1.124-3.992 1.575 2.573 1.441 5.826 1.344 8.548.266 1.023-.406 2.066-.957 2.766-1.826.827-1.023 1.281-2.361 1.511-3.641.147-.826.212-1.662.232-2.497.069-2.841 1.297-5.734 3.009-8.914-.503 1.712-.913 4.292-1.076 6.246-.795 7.725-1.643 21.868-10.304 28.947 1.807-.226 3.75-.77 5.372-1.597 5.547-2.827 7.993-9.355 8.312-15.241.057-1.099.042-2.794.021-3.893 1.786 2.432 2.487 9.117 2.118 12.182 5.526-5.052.263-14.137-1.455-19.763-.715-2.347-.616-5.054-.1-7.435.979 1.935 1.782 4.062 2.602 6.081.407 1.003 2.247 4.886 1.429 5.931 4.226-5.378-3.336-14.158-3.183-18.601.307-1.847.664-3.68 1.079-5.489l-.013-.036z"
        fill="#3c5947" />
    <path
        d="M318.946 253.472c-2.943-.602-5.891-1.037-8.853-.325-2.944.707-5.315 3.011-7.385 5.075-.274.273.149.697.424.424 1.929-1.924 3.921-3.745 6.502-4.729 2.89-1.102 6.239-.461 9.15.133.38.076.541-.502.162-.578z"
        fill="#d7bd98" />
    <path
        d="M334.764 132.503c1.913 9.306.924 21.187-7.316 27.157-.232.168-.009.559.227.389 8.432-6.107 9.482-18.143 7.524-27.665-.06-.284-.493-.164-.435.119zM322.867 103.659c2.359 4.597 3.812 9.794 4.484 14.896 1.555 11.789-4.082 21.216-15.23 25.43-.27.102-.152.537.119.434 10.096-3.814 15.885-11.538 15.812-22.396-.042-6.298-1.922-12.991-4.796-18.591-.133-.259-.521-.031-.389.227zM339.102 150.949c9.771 5.858 17.479 16.825 14.047 28.503-.082.279.353.397.434.121 3.488-11.873-4.29-23.041-14.253-29.014-.25-.148-.477.241-.228.39z"
        fill="#3c5947" />
    <path
        d="M300.41 259.819c-2.226.58-4.17.513-4.347-.155-.172-.67 1.49-1.68 3.717-2.261 2.223-.579 4.166-.51 4.343.158.17.668-1.49 1.676-3.713 2.258z"
        fill="#d7bd98" />
    <path
        d="M186.233 334.234c1.036-1.615 1.998-3.25 3.258-4.795 1.798-2.197 4.199-4.182 7.273-4.421 2.719-.211 4.977.337 7.717.655l.02.039c-1.038 1.615-2 3.25-3.261 4.787-1.796 2.207-4.199 4.188-7.272 4.428-2.72.212-5.082-.621-7.718-.655M203.459 324.992c-2.618-.576-5.226-1.047-7.856-1.951-3.75-1.295-7.511-3.483-9.309-7.396-1.594-3.463-1.964-6.683-2.872-10.433l.041-.041c2.618.578 5.228 1.049 7.853 1.959 3.761 1.285 7.518 3.479 9.313 7.39 1.593 3.464 1.644 6.964 2.871 10.433M210.362 324.855c.181-2.674.258-5.322.761-8.061.722-3.901 2.323-7.943 5.926-10.309 3.188-2.09 6.316-2.936 9.886-4.393l.049.033c-.182 2.676-.258 5.326-.768 8.058-.71 3.911-2.32 7.95-5.919 10.312-3.187 2.092-6.642 2.662-9.888 4.394"
        fill="#3c5947" />
    <path
        d="M218.653 350.306c-2.006-1.779-4.053-3.461-5.913-5.531-2.646-2.956-4.864-6.695-4.531-10.99.296-3.801 1.539-6.796 2.569-10.511l.058-.019c2.006 1.781 4.056 3.463 5.903 5.535 2.66 2.953 4.875 6.696 4.539 10.99-.293 3.801-1.953 6.881-2.569 10.508"
        fill="#3c5947" />
    <path
        d="M42.446 150.442c1.056-6.958.985-17.727-6.458-21.398-.346-.17-.65.347-.303.519 7.184 3.543 7.204 13.99 6.183 20.721-.058.377.52.54.578.158z"
        fill="#3d5a48" />
    <path
        d="M43.465 144.09c1.591-5.807 3.794-15.817-1.491-20.486-.289-.255-.714.167-.424.424 5.069 4.479 2.855 14.358 1.337 19.903-.102.373.476.532.578.159zM46.994 131.386c1.25-3.96 2.884-10.407-.634-13.745-.28-.267-.705.157-.424.424 3.331 3.162 1.657 9.432.479 13.162-.116.369.463.526.579.159z"
        fill="#3d5a48" />
    <path
        d="M48.109 127.788c1.344-3.361 4.275-8.256 8.558-7.792.384.042.38-.559 0-.6-4.569-.496-7.704 4.65-9.136 8.232-.144.36.436.515.578.16zM43.021 148.116c1.43-5.932 5.666-15.47 13.297-14.565.384.046.379-.555 0-.6-7.908-.938-12.386 8.827-13.875 15.005-.091.377.488.536.578.16z"
        fill="#3d5a48" />
    <path
        d="M44.642 139.463c1.597-5.285 5.617-13.922 12.316-13.794.387.008.386-.592 0-.6-7.007-.135-11.213 8.671-12.894 14.234-.113.372.466.53.578.16z"
        fill="#3d5a48" />
    <path
        d="M55.15 110.265c2.002-5.814 10.82-8.574 16.18-6.104.349.161.654-.356.303-.519-5.732-2.641-14.917.237-17.061 6.464-.127.366.453.522.578.159zM54.429 86.172c1.446 2.208 4.404 3.439 6.995 2.971.38-.068.219-.646-.159-.578-2.314.418-5.03-.729-6.317-2.696-.212-.322-.732-.021-.519.303z"
        fill="#d7bd98" />
    <ellipse transform="rotate(-176.758 83.572 83.05)" cx="83.573" cy="83.051" rx="2.695" ry=".809" fill="#d7bd98" />
    <ellipse transform="rotate(109.038 83.345 78.407)" cx="83.345" cy="78.405" rx="2.697" ry=".808" fill="#d7bd98" />
    <path
        d="M82.455 80.609c-2.068 3.889-7.207 2.539-10.653 1.708-.376-.091-.535.488-.159.578 3.73.899 9.113 2.184 11.331-1.984.18-.34-.337-.643-.519-.302zM41.131 96.385c7.03-2.844 14.978 4.024 13.096 11.334-.097.375.482.534.578.159 1.985-7.708-6.354-15.097-13.833-12.071-.354.143-.2.723.159.578zM65.287 73.577c-3.184 5.816-6.394 15.007-2.333 21.135.213.321.733.021.519-.303-3.914-5.906-.746-14.905 2.333-20.529.185-.339-.333-.642-.519-.303z"
        fill="#d7bd98" />
    <path
        d="M54.14 72.319c6.635 1.514 6.786 9.385 6.894 14.899.007.386.607.387.6 0-.114-5.8-.406-13.897-7.334-15.477-.377-.086-.537.492-.16.578z"
        fill="#d7bd98" />
    <ellipse transform="rotate(4.365 50.44 72)" cx="50.459" cy="72.013" rx="4.163" ry="1.249" fill="#d7bd98" />
    <ellipse transform="rotate(78.638 57.302 69.863)" cx="57.302" cy="69.862" rx="4.163" ry="1.248" fill="#d7bd98" />
    <ellipse transform="scale(-1) rotate(-78.54 -102.18 67.376)" cx="55.089" cy="83.547" rx="2.922" ry=".876"
        fill="#d7bd98" />
    <ellipse transform="scale(-1) rotate(-22.873 -376.574 345.022)" cx="69.8" cy="76.182" rx="6.955" ry="2.086"
        fill="#d7bd98" />
    <ellipse transform="rotate(1.014 74.373 103.426)" cx="74.426" cy="103.496" rx="4.003" ry="1.201" fill="#d7bd98" />
    <ellipse transform="rotate(23.808 41.74 83.95)" cx="41.743" cy="83.951" rx="6.955" ry="2.086" fill="#d7bd98" />
    <path
        d="M35.652 99.936c-3.684 1.094-6.934 1.087-7.263-.018-.329-1.105 2.391-2.889 6.073-3.983 3.682-1.094 6.932-1.087 7.261.017.33 1.107-2.39 2.888-6.071 3.984z"
        fill="#d7bd98" />
    <path
        d="M57.16 209.88c-.939-.676-1.877-1.301-2.794-2.109-1.307-1.152-2.558-2.66-2.952-4.536-.354-1.659-.265-3.019-.341-4.675l.02-.012c.938.675 1.875 1.306 2.794 2.111 1.308 1.151 2.558 2.666 2.953 4.539.351 1.659.125 3.073.342 4.67"
        fill="#3c5947" />
    <path
        d="M57.097 218.345c.676-3.352 1.077-6.732-.032-10.024-.092-.272-.527-.155-.434.12 1.085 3.221.694 6.504.032 9.785-.057.283.377.402.434.119zM38.19 220.533c-.936.28-1.838.59-2.851.788-1.445.284-3.101.345-4.562-.354-1.293-.615-2.158-1.373-3.307-2.174l.001-.02c.935-.281 1.84-.585 2.852-.787 1.445-.285 3.102-.346 4.562.354 1.294.619 2.125 1.498 3.307 2.175M37.696 205.078c-1.956-.141-3.862-.224-5.949-.541-2.976-.455-6.294-1.4-8.955-3.416-2.354-1.781-3.809-3.511-5.817-5.496l.012-.025c1.956.143 3.864.225 5.949.545 2.977.453 6.294 1.396 8.955 3.412 2.357 1.783 3.704 3.686 5.818 5.496M58.215 246.369c-4.419-10.91-15.062-25.969-28.34-18.561-.253.143-.026.529.228.389 12.99-7.246 23.375 7.662 27.679 18.29.107.266.542.15.433-.118zM17.29 174.935c-1.57.047-3.098.138-4.789.053-2.409-.121-5.131-.605-7.415-1.996-2.022-1.229-3.323-2.489-5.086-3.91l.009-.021c1.571-.045 3.098-.136 4.787-.049 2.409.12 5.132.604 7.415 1.994 2.025 1.229 3.254 2.637 5.084 3.908"
        fill="#3c5947" />
    <path
        d="M47.236 219.862c-1.069-4.604-3.785-15.35-10.498-14.872-.288.021-.29.471 0 .45 6.454-.459 9.036 10.11 10.064 14.541.066.284.5.164.434-.119zM44.102 227.761c-1.55-3.049-3.351-5.928-6.267-7.812-.245-.158-.47.231-.228.389 2.847 1.841 4.594 4.68 6.105 7.65.133.258.521.031.39-.227zM28.999 187.117c-1.562-4.848-5.654-14.498-12.554-12.433-.277.082-.159.517.119.434 6.61-1.979 10.523 7.531 12.001 12.118.089.275.523.158.434-.119zM159.509 322.996c-2.715.125-5.9.428-8.311 1.885-1.111.677-2.308 1.854-2.863 3.061-1.642 3.562 2.509 6.012 5.087 4.012 2.346-1.818 4.698-4.277 6.967-5.609a16.172 16.172 0 018.252-2.245c3.093.005-5.829-1.257-9.132-1.104z"
        fill="#3c5947" />
    <path
        d="M160.144 320.638c-2.333-1.398-4.995-3.174-6.425-5.6-.661-1.121-1.155-2.725-1.073-4.049.243-3.916 5.059-4.105 6.383-1.123 1.204 2.713 2.109 5.993 3.476 8.241a16.211 16.211 0 006.203 5.89c2.724 1.456-5.728-1.66-8.564-3.359zM50.635 168.984c-.272-1.147-.505-2.282-.898-3.489-.557-1.728-1.442-3.611-2.897-4.999-1.29-1.23-2.458-1.927-3.834-2.929l-.013.009c.273 1.15.505 2.278.898 3.488.557 1.725 1.441 3.61 2.897 4.998 1.289 1.231 2.551 1.849 3.832 2.932"
        fill="#3c5947" />
    <path
        d="M40.928 193.272c8.895-5.271 12.417-15.651 9.769-25.387-.076-.279-.51-.161-.434.119 2.595 9.542-.869 19.729-9.563 24.878-.248.149-.022.537.228.39zM27.25 173.747c.226-1.16.412-2.299.755-3.523.485-1.747 1.292-3.666 2.688-5.112 1.239-1.28 2.379-2.026 3.712-3.084l.013.008c-.226 1.161-.411 2.297-.754 3.521-.487 1.748-1.292 3.666-2.691 5.111-1.236 1.284-2.471 1.952-3.708 3.089M52.576 192.664c2.359-2.123 4.596-4.261 7.308-6.34 3.87-2.965 8.694-5.779 14.032-6.628 4.724-.75 8.375-.506 12.945-.625l.017.044c-2.358 2.125-4.595 4.262-7.308 6.336-3.871 2.973-8.695 5.782-14.032 6.631-4.722.752-8.458.186-12.945.623M30.783 228.107c-1.974.443-3.872.926-6.053 1.247-3.109.461-6.771.583-10.271-.448-3.099-.912-5.291-2.037-8.141-3.23v-.028c1.973-.442 3.873-.923 6.052-1.245 3.111-.46 6.773-.58 10.272.449 3.098.911 5.266 2.225 8.141 3.23M67.869 207.869c3.479.406 6.858.711 10.607 1.436 5.344 1.033 11.4 2.938 16.528 6.629 4.539 3.27 7.478 6.363 11.449 9.949l-.016.048c-3.479-.409-6.859-.714-10.605-1.437-5.347-1.035-11.402-2.939-16.529-6.629-4.54-3.27-7.328-6.658-11.45-9.951M123.975 309.78c-3.728-1.966-7.329-4.049-11.394-5.626-5.794-2.242-12.484-3.383-18.514-.387-5.336 2.654-8.96 6.245-13.75 9.951l.005.095c3.727 1.967 7.332 4.05 11.393 5.623 5.799 2.245 12.489 3.386 18.513.388 5.337-2.65 8.854-6.918 13.754-9.947M93.308 290.175c1.653-2.889 3.397-5.676 4.752-8.842 1.931-4.513 3.015-9.766.813-14.606-1.95-4.284-4.685-7.245-7.48-11.129h-.074c-1.656 2.891-3.399 5.679-4.753 8.841-1.93 4.518-3.015 9.77-.813 14.607 1.946 4.287 5.221 7.18 7.478 11.133M63.888 255.742c1.929-1.904 3.907-3.712 5.664-5.898 2.503-3.12 4.503-7.006 3.833-11.287-.592-3.789-2.091-6.711-3.435-10.373l-.059-.016c-1.932 1.906-3.91 3.713-5.665 5.897-2.503 3.125-4.504 7.011-3.834 11.289.588 3.79 2.527 6.776 3.433 10.373M72.215 267.807c-1.557-1.304-3.044-2.646-4.8-3.8-2.503-1.643-5.542-2.855-8.683-2.049-2.782.709-4.853 2.035-7.484 3.299l-.007.046c1.559 1.303 3.046 2.647 4.799 3.8 2.506 1.643 5.543 2.854 8.685 2.051 2.781-.711 4.87-2.365 7.483-3.299M240.677 317.223c.754-3.246 1.035-4.199 1.745-7.818l.083-.413c3.1-8.104 11.023-11.223 19.18-14.674-9.726-3.449-14.858 6.746-18.617 11.92.017-.084.391-.146.406-.232 1.139-1.623 1.37-2.439 2.059-4.687.986-3.226 1.848-6.323 3.719-9.18 1.283-1.961 2.645-3.423 4.373-4.659 1.168-.834 2.456-1.475 3.74-2.105-2.745-1.076-5.954-.537-8.506.902-.957.54-1.916 1.229-2.49 2.186-.682 1.127-.948 2.514-1.004 3.812-.031.839.019 1.675.111 2.505.318 2.824-.504 5.858-1.768 9.241.266-1.767.32-4.377.216-6.335-.265-7.762-1.35-21.889 6.267-30.08-1.76.469-3.609 1.273-5.104 2.312-5.108 3.557-6.644 10.356-6.158 16.231.093 1.097.339 2.774.511 3.86-2.102-2.168-3.705-8.695-3.758-11.78-4.787 5.756 1.664 14.041 4.133 19.381 1.027 2.228 1.299 4.923 1.11 7.353-1.233-1.784-2.317-3.783-3.405-5.672-.539-.938-2.892-4.533-2.223-5.681-3.454 5.904 5.232 13.572 5.686 17.994a93.932 93.932 0 01-.32 5.585l.014.034z"
        fill="#3c5947" />
    <path
        d="M61.345 98.478c3.1.392 6.294.768 9.298-.304 2.521-.899 4.498-3.083 6.297-4.955.268-.279-.156-.704-.424-.424-1.924 2.002-3.882 4.033-6.554 4.986-2.686.958-5.871.443-8.617.097-.383-.048-.378.553 0 .6z"
        fill="#d7bd98" />
    <path
        d="M340.729 175.013c-.214 46.744-22.084 90.919-59.13 119.431-37.106 28.558-86.592 37.55-131.581 25.175-44.26-12.175-80.87-45.402-98.405-87.641C33.64 188.685 37.819 138.296 61.602 98.1c23.506-39.729 65.254-66.496 110.932-72.164 46.238-5.737 93.045 11.186 125.594 44.302 27.34 27.814 42.423 65.892 42.601 104.775.003.541.844.541.841 0a152.579 152.579 0 00-52.356-114.322c-33.005-28.738-77.705-41.193-120.87-35.037-42.778 6.101-81.188 31.515-104.694 67.561-24.208 37.123-30.202 84.19-17.345 126.443 12.503 41.092 43.196 75.193 82.121 92.993 39.971 18.278 87.041 17.457 126.715-1.11 52.493-24.566 86.166-78.851 86.431-136.527 0-.544-.841-.543-.843-.001z"
        fill="#3d5a48" />
    <path
        d="M46.922 220.02c-2.125-9.354-1.625-21.644 6.64-27.865.229-.173.005-.563-.228-.389-8.459 6.368-9.023 18.793-6.846 28.373.064.282.498.163.434-.119zM59.133 248.197c-2.279-4.352-3.713-9.244-4.495-14.072-1.948-12.031 3.431-21.985 14.847-26.523.266-.105.15-.541-.12-.434-10.046 3.992-15.736 11.83-15.567 22.701.098 6.299 2.024 12.978 4.946 18.555.135.258.524.031.389-.227zM41.701 200.615c-9.77-5.593-17.003-16.306-13.842-27.774.078-.279-.357-.398-.434-.119-3.214 11.658 4.078 22.574 14.048 28.281.253.144.48-.244.228-.388z"
        fill="#3c5947" />
    <ellipse transform="scale(-1) rotate(-15.598 -677.345 580.767)" cx="79.549" cy="92.777" rx="4.163" ry="1.249"
        fill="#d7bd98" />
    <g>
        <path
            d="M174.507 25.965c-2.678-.126-5.327-.144-8.072-.586-3.92-.637-7.995-2.153-10.434-5.701-2.16-3.145-3.075-6.25-4.608-9.788l.033-.051c2.677.125 5.327.144 8.071.591 3.926.627 7.997 2.15 10.436 5.696 2.16 3.139 2.809 6.58 4.605 9.791M326.082 264.708c1.03-.25 1.93-.203 2.006.106.074.312-.704.765-1.734 1.013-1.031.252-1.93.2-2.005-.106-.075-.311.699-.763 1.733-1.013zM175.842 26.313c.102-3.015.084-5.995.544-9.091.663-4.42 2.312-9.027 6.271-11.82 3.506-2.473 6.99-3.547 10.949-5.321l.056.037c-.104 3.013-.086 5.996-.554 9.086-.651 4.428-2.307 9.031-6.266 11.826-3.501 2.472-7.362 3.249-10.949 5.314M178.979 54.09c-1.357-2.311-2.791-4.539-3.921-7.08-1.607-3.631-2.564-7.872-.925-11.854 1.452-3.525 3.554-5.99 5.681-9.207h.057c1.359 2.311 2.792 4.538 3.916 7.083 1.621 3.63 2.57 7.872.932 11.853-1.448 3.524-3.975 5.946-5.682 9.207M315.41 284.238c-.591 3.797-1.995 6.729-3.134 6.553-1.139-.18-1.584-3.4-.988-7.195.591-3.797 1.995-6.729 3.132-6.553 1.142.181 1.582 3.4.99 7.195zM343.485 222.169c-.729 1.158.173 3.097 2.014 4.328 1.832 1.226 3.92 1.285 4.649.127.726-1.158-.184-3.102-2.017-4.326-1.84-1.23-3.923-1.285-4.646-.129zM337.753 227.474c-.844.826-.477 2.63.82 4.031 1.289 1.395 3.022 1.865 3.869 1.039.841-.824.468-2.633-.821-4.027-1.295-1.402-3.028-1.867-3.868-1.043zM333.514 233.597c-.571.512-.384 1.713.426 2.68.802.959 1.923 1.332 2.495.819.571-.511.382-1.716-.426-2.677-.806-.966-1.924-1.334-2.495-.822zM324.081 232.074c0 .75-1 1.359-2.232 1.355-1.226.001-2.229-.608-2.226-1.36-.001-.749 1.002-1.358 2.229-1.356 1.232.001 2.229.613 2.229 1.361zM325.062 218.496c-.028 1.383-1.669 2.526-3.669 2.553-1.985.027-3.585-1.069-3.558-2.453.029-1.381 1.677-2.526 3.663-2.551 1.999-.028 3.594 1.07 3.564 2.451zM324.188 226.294c.071 1.174-1.332 2.266-3.142 2.437-1.796.171-3.323-.644-3.396-1.815-.073-1.174 1.338-2.267 3.137-2.435 1.807-.171 3.328.642 3.401 1.813z"
            fill="#70885d" />
        <ellipse transform="rotate(-32.339 294.464 271.846)" cx="294.505" cy="271.856" rx="2.696" ry=".81"
            fill="#70885d" />
        <path
            d="M328.686 281.72c1.679 1.57 2.658 3.252 2.188 3.757-.472.502-2.215-.36-3.895-1.935-1.677-1.567-2.655-3.248-2.186-3.754.473-.503 2.216.362 3.893 1.932z"
            fill="#70885d" />
        <ellipse transform="rotate(-140.273 307.853 245.75)" cx="307.853" cy="245.746" rx="3.065" ry=".92"
            fill="#70885d" />
        <path
            d="M337.907 250.718c1.341-2.676 3.078-4.52 3.882-4.117s.368 2.898-.973 5.574c-1.342 2.678-3.082 4.521-3.883 4.121-.802-.404-.367-2.9.974-5.578z"
            fill="#70885d" />
        <ellipse transform="rotate(167.059 333.086 261.322)" cx="333.089" cy="261.322" rx="5.328" ry="1.597"
            fill="#70885d" />
        <path
            d="M324.726 142.259c.729.897 1.475 1.745 2.153 2.761.963 1.455 1.775 3.239 1.667 5.152-.088 1.692-.524 2.982-.882 4.599l-.023.007c-.729-.894-1.471-1.747-2.148-2.764-.963-1.452-1.776-3.237-1.671-5.151.096-1.695.678-2.997.886-4.596M344.188 131.464c.356.909.74 1.782 1.024 2.774.403 1.417.602 3.062.026 4.576-.506 1.338-1.188 2.266-1.892 3.477l-.02-.001c-.358-.907-.736-1.784-1.021-2.775-.404-1.417-.604-3.062-.026-4.576.506-1.342 1.312-2.243 1.888-3.475M343.631 146.919c1.8-.78 3.531-1.585 5.529-2.267 2.85-.968 6.229-1.661 9.52-1.1 2.912.495 4.999 1.359 7.696 2.193l.003.03c-1.801.776-3.532 1.581-5.529 2.263-2.853.969-6.231 1.662-9.52 1.1-2.913-.494-4.988-1.561-7.697-2.191M364.098 177.861c.805-1.352 1.553-2.685 2.525-4.068 1.396-1.966 3.27-4.003 5.67-5.182 2.121-1.046 3.884-1.464 6.027-2.19l.016.019c-.808 1.349-1.551 2.684-2.53 4.065-1.396 1.967-3.265 4.008-5.665 5.186-2.125 1.046-3.971 1.326-6.027 2.189M212.103 25.03c2.692-.347 5.846-.912 8.125-2.565 1.051-.767 2.146-2.04 2.6-3.288 1.342-3.686-3-5.783-5.402-3.576-2.188 2.007-4.328 4.651-6.479 6.169a16.183 16.183 0 01-8.038 2.924c-3.082.246 5.915.764 9.194.336z"
            fill="#70885d" />
        <path
            d="M211.665 27.437c2.439 1.199 5.24 2.747 6.868 5.044.75 1.063 1.376 2.622 1.403 3.947.084 3.92-4.699 4.514-6.267 1.649-1.426-2.604-2.601-5.799-4.147-7.926a16.226 16.226 0 00-6.672-5.354c-2.833-1.224 5.848 1.18 8.815 2.64zM236.437 30.068c2.717-.041 5.91-.247 8.362-1.63 1.132-.642 2.363-1.785 2.955-2.972 1.75-3.509-2.323-6.085-4.964-4.164-2.4 1.747-4.826 4.132-7.134 5.396a16.17 16.17 0 01-8.316 1.994c-3.09-.103 5.789 1.429 9.097 1.376z"
            fill="#70885d" />
        <path
            d="M235.729 32.408c2.289 1.468 4.896 3.322 6.254 5.79.625 1.142 1.07 2.76.949 4.082-.363 3.905-5.182 3.951-6.416.929-1.121-2.749-1.928-6.056-3.224-8.345a16.209 16.209 0 00-6.021-6.074c-2.678-1.54 5.677 1.832 8.458 3.618zM330.513 183.509c-.825 1.332-1.67 2.615-2.443 4.115-1.104 2.146-2.05 4.746-1.987 7.422.048 2.363.488 4.119.834 6.355l.024.006c.824-1.338 1.667-2.613 2.44-4.117 1.104-2.146 2.047-4.744 1.992-7.416-.053-2.373-.657-4.142-.836-6.365M353.525 178.867c.836 1.334 1.688 2.604 2.471 4.104 1.119 2.139 2.083 4.729 2.038 7.406-.031 2.365-.459 4.125-.791 6.36l-.024.009c-.835-1.332-1.683-2.604-2.47-4.101-1.118-2.142-2.08-4.731-2.041-7.403.035-2.371.628-4.146.793-6.371M328.526 159.248c-.63 3.113-1.162 6.158-2.106 9.445-1.347 4.684-3.552 9.814-7.341 13.668-3.352 3.413-6.43 5.389-10.033 8.203l-.039-.025c.631-3.11 1.164-6.156 2.105-9.44 1.349-4.687 3.553-9.816 7.341-13.671 3.354-3.415 6.688-5.181 10.036-8.203M351.247 124.683c.75-1.64 1.429-3.254 2.402-4.94 1.39-2.403 3.389-4.914 6.281-6.451 2.562-1.363 4.788-1.962 7.443-2.949l.023.021c-.749 1.64-1.43 3.258-2.399 4.938-1.389 2.404-3.391 4.916-6.282 6.451-2.562 1.363-4.933 1.806-7.446 2.949M143.863 31.966c-3.292.433-4.277.502-7.9 1.104l-.415.066c-8.641-.058-9.736-10.605-16.262-13.951-3.654 7.13 7.361 12.692 13.499 14.389-.084.014-.274-.311-.358-.298-1.914-.495-2.755-.424-5.089-.28-3.352.205-6.542.484-9.858-.262-2.279-.511-4.115-1.27-5.873-2.451-1.187-.797-2.232-1.774-3.271-2.75-.046 2.937 1.581 5.74 3.812 7.616.838.705 1.815 1.357 2.907 1.559 1.289.241 2.676.005 3.906-.398.792-.261 1.554-.6 2.296-.977 2.525-1.284 5.639-1.578 9.236-1.581-1.739.371-4.194 1.23-5.983 2.012-7.145 2.958-19.937 8.905-30.237 4.667 1.051 1.475 2.449 2.921 3.94 3.95 5.101 3.523 11.977 2.578 17.287.071.99-.469 2.469-1.283 3.422-1.823-1.289 2.715-6.813 6.493-9.674 7.619 7.043 2.452 12.511-6.456 16.63-10.625 1.716-1.736 4.137-2.929 6.465-3.604-1.232 1.773-2.718 3.484-4.097 5.155-.687.832-3.218 4.282-4.521 4.058 6.711 1.159 10.828-9.621 14.792-11.586a92.921 92.921 0 015.321-1.654l.025-.026zM313.596 143.56c-2.169 2.246-4.203 4.501-6.763 6.693-3.65 3.13-8.355 6.088-13.967 6.939-4.967.756-8.949.462-13.858.546l-.026-.048c2.168-2.247 4.205-4.5 6.762-6.694 3.648-3.129 8.357-6.087 13.965-6.939 4.966-.754 9.101-.117 13.86-.542M261.233 40.771c-1.483 3.944-3.104 7.778-4.153 12.008-1.505 6.028-1.799 12.81 1.929 18.417 3.301 4.961 7.314 8.108 11.592 12.398l.094-.018c1.484-3.944 3.103-7.78 4.156-12.005 1.502-6.035 1.795-12.814-1.931-18.418-3.3-4.964-7.974-7.919-11.591-12.401M289.675 61.361c2.669 2.17 5.219 4.416 8.219 6.326 4.275 2.726 9.448 4.71 14.753 3.276 4.694-1.269 8.173-3.561 12.599-5.758l.012-.076c-2.667-2.173-5.219-4.417-8.217-6.327-4.28-2.727-9.451-4.711-14.753-3.276-4.695 1.265-8.195 4.119-12.599 5.756M319.694 97.594c1.645 1.941 3.188 3.919 5.107 5.719 2.736 2.564 6.225 4.713 10.271 4.396 3.588-.279 6.425-1.472 9.941-2.462l.02-.055c-1.643-1.943-3.189-3.921-5.106-5.72-2.737-2.565-6.225-4.714-10.271-4.396-3.584.279-6.519 1.874-9.942 2.461M307.568 79.724c-1.454 1.926-2.964 3.77-4.229 5.926-1.801 3.068-3.059 6.749-1.916 10.431 1.011 3.259 2.709 5.638 4.363 8.687l.055.005c1.453-1.923 2.962-3.772 4.225-5.923 1.803-3.074 3.06-6.752 1.918-10.433-1.01-3.261-3.1-5.641-4.361-8.688M304.153 253.574c-2.163-.767-3.731-1.92-3.502-2.568.23-.649 2.175-.553 4.341.216 2.164.771 3.734 1.921 3.505 2.573-.233.646-2.174.548-4.344-.221z"
            fill="#70885d" />
        <ellipse transform="rotate(-75.978 303.661 260.64)" cx="303.657" cy="260.639" rx="4.162" ry="1.249"
            fill="#70885d" />
        <path
            d="M207.785 324.173c-.052 3.017.017 5.996-.39 9.101-.588 4.431-2.158 9.063-6.068 11.925-3.46 2.533-6.928 3.666-10.856 5.508l-.055-.035c.051-3.016-.016-5.996.396-9.096.576-4.438 2.152-9.068 6.062-11.932 3.457-2.531 7.307-3.373 10.855-5.503M204.172 296.457c1.396 2.285 2.867 4.488 4.041 7.01 1.669 3.604 2.699 7.828 1.127 11.838-1.392 3.55-3.45 6.051-5.521 9.304h-.059c-1.396-2.286-2.867-4.489-4.037-7.015-1.681-3.602-2.703-7.826-1.134-11.834 1.388-3.551 3.874-6.014 5.522-9.303M209.124 324.5c2.68.08 5.329.053 8.081.447 3.931.569 8.03 2.016 10.53 5.521 2.213 3.107 3.182 6.197 4.773 9.707l-.031.052c-2.68-.079-5.328-.052-8.08-.453-3.937-.56-8.033-2.012-10.531-5.519-2.215-3.101-2.92-6.529-4.772-9.709M36.792 129.961c.708-1.17-.226-3.092-2.091-4.292-1.852-1.193-3.94-1.217-4.649-.047-.706 1.171.236 3.097 2.089 4.289 1.865 1.2 3.946 1.221 4.651.05z"
            fill="#70885d" />
        <ellipse transform="scale(-1) rotate(-82.114 -77.743 75.62)" cx="65.865" cy="67.714" rx="6.956" ry="2.087"
            fill="#70885d" />
        <path
            d="M42.431 124.56c.828-.839.432-2.636-.889-4.017-1.314-1.372-3.058-1.811-3.887-.973-.827.84-.425 2.643.889 4.014 1.321 1.379 3.061 1.815 3.887.976zM46.565 118.365c.563-.521.354-1.717-.471-2.67-.819-.947-1.946-1.299-2.511-.777-.562.522-.35 1.72.471 2.668.825.954 1.948 1.301 2.511.779zM56.022 119.728c-.012-.75.976-1.376 2.208-1.396 1.226-.021 2.238.571 2.25 1.322.012.75-.98 1.375-2.206 1.396-1.232.02-2.24-.572-2.252-1.322zM55.273 133.32c.005-1.383 1.625-2.554 3.623-2.615 1.985-.062 3.604 1.009 3.601 2.392-.005 1.382-1.634 2.556-3.621 2.614-1.997.061-3.609-1.009-3.603-2.391zM56.015 125.507c-.092-1.173 1.293-2.287 3.098-2.489 1.793-.2 3.334.586 3.427 1.758.092 1.171-1.3 2.288-3.094 2.487-1.805.202-3.339-.585-3.431-1.756z"
            fill="#70885d" />
        <ellipse transform="scale(-1) rotate(-33.224 -266.34 284.652)" cx="84.922" cy="79.458" rx="2.695" ry=".809"
            fill="#70885d" />
        <ellipse transform="rotate(-14.589 53.309 86.57)" cx="53.315" cy="86.578" rx="1.923" ry=".577" fill="#70885d" />
        <ellipse transform="rotate(42.115 51.407 69.24)" cx="51.406" cy="69.242" rx="4.162" ry="1.248" fill="#70885d" />
        <ellipse transform="rotate(38.769 72.003 105.788)" cx="72.006" cy="105.794" rx="3.066" ry=".919"
            fill="#70885d" />
        <ellipse transform="rotate(-64.386 40.414 100.617)" cx="40.413" cy="100.614" rx="5.421" ry="1.626"
            fill="#70885d" />
        <ellipse transform="rotate(-13.928 46.53 90.65)" cx="46.53" cy="90.649" rx="5.327" ry="1.598" fill="#70885d" />
        <path
            d="M56.915 209.541c-.745-.885-1.503-1.721-2.199-2.726-.988-1.438-1.831-3.207-1.756-5.121.06-1.692.475-2.991.804-4.612l.022-.008c.745.883 1.501 1.721 2.197 2.727.987 1.436 1.83 3.207 1.759 5.121-.065 1.697-.627 3.01-.807 4.611"
            fill="#70885d" />
        <path
            d="M54.275 111.286c.45-4.658 2.257-9.644 1.587-14.363-.719-5.072-3.811-8.173-8.119-10.67-.335-.194-.637.324-.303.519 5.41 3.135 8.168 7.138 7.854 13.448-.185 3.716-1.262 7.361-1.619 11.067-.037.384.563.38.6-.001z"
            fill="#d7bd98" />
        <path
            d="M37.72 220.705c-.373-.902-.771-1.77-1.071-2.756-.427-1.41-.654-3.053-.105-4.574.483-1.349 1.149-2.287 1.831-3.51l.019.002c.374.899.767 1.77 1.069 2.756.429 1.41.655 3.051.107 4.573-.486 1.351-1.275 2.265-1.829 3.509M37.933 205.205c-1.787.811-3.504 1.646-5.49 2.359-2.833 1.018-6.199 1.77-9.499 1.264-2.921-.445-5.022-1.272-7.733-2.062l-.003-.029c1.787-.808 3.504-1.641 5.489-2.356 2.835-1.019 6.202-1.769 9.5-1.264 2.921.444 5.014 1.477 7.734 2.061M17.021 174.731c-.781 1.367-1.505 2.713-2.458 4.112-1.363 1.99-3.199 4.059-5.579 5.277-2.104 1.082-3.858 1.531-5.989 2.293l-.015-.018c.782-1.363 1.504-2.71 2.459-4.107 1.363-1.992 3.196-4.062 5.575-5.283 2.106-1.082 3.948-1.395 5.99-2.292M171.884 325.449c-2.682.432-5.812 1.096-8.04 2.82-1.027.799-2.081 2.105-2.495 3.367-1.226 3.725 3.178 5.686 5.512 3.402 2.123-2.074 4.181-4.785 6.281-6.369a16.194 16.194 0 017.942-3.172c3.073-.342-5.935-.578-9.2-.048z"
            fill="#70885d" />
        <path
            d="M172.247 323.033c-2.477-1.123-5.324-2.582-7.022-4.828-.784-1.039-1.458-2.578-1.527-3.9-.205-3.916 4.556-4.658 6.212-1.846 1.506 2.56 2.78 5.715 4.395 7.793a16.242 16.242 0 006.834 5.143c2.871 1.133-5.881-.998-8.892-2.362zM147.119 320.251c-2.717 0-5.914.154-8.388 1.5-1.142.625-2.391 1.748-3 2.927-1.804 3.481 2.229 6.12 4.898 4.241 2.427-1.711 4.89-4.059 7.217-5.285a16.162 16.162 0 018.347-1.864c3.087.151-5.768-1.519-9.074-1.519z"
            fill="#70885d" />
        <path
            d="M147.862 317.923c-2.267-1.504-4.845-3.398-6.162-5.887-.608-1.15-1.028-2.775-.886-4.095.423-3.899 5.242-3.871 6.428-.83 1.078 2.767 1.833 6.085 3.093 8.396a16.24 16.24 0 005.926 6.168c2.656 1.578-5.645-1.924-8.399-3.752zM50.55 169.062c.806-1.35 1.626-2.644 2.375-4.16 1.067-2.164 1.967-4.778 1.86-7.452-.089-2.364-.56-4.112-.944-6.343l-.023-.004c-.803 1.351-1.622 2.642-2.371 4.158-1.067 2.165-1.966 4.779-1.864 7.45.092 2.371.727 4.129.943 6.35M27.494 173.431c-.86-1.318-1.731-2.576-2.542-4.061-1.154-2.118-2.161-4.693-2.164-7.37-.009-2.367.39-4.132.681-6.376l.024-.006c.858 1.316 1.728 2.574 2.54 4.058 1.155 2.119 2.161 4.694 2.167 7.368.006 2.371-.555 4.152-.682 6.382M52.824 192.619c.579-3.123 1.057-6.177 1.945-9.479 1.266-4.705 3.383-9.876 7.104-13.793 3.294-3.469 6.337-5.498 9.893-8.373l.04.025c-.579 3.122-1.058 6.176-1.945 9.477-1.268 4.707-3.384 9.875-7.105 13.793-3.294 3.471-6.601 5.296-9.893 8.374M30.699 227.568c-.722 1.65-1.373 3.278-2.318 4.979-1.348 2.428-3.303 4.974-6.169 6.559-2.536 1.407-4.753 2.044-7.394 3.076l-.024-.021c.723-1.65 1.373-3.281 2.318-4.979 1.348-2.428 3.304-4.973 6.168-6.559 2.539-1.406 4.903-1.89 7.396-3.076M234.474 319.414c3.201-.877 4.17-1.08 7.676-2.17.139-.041.269-.08.402-.123 8.567-1.119 11.09 9.184 18.01 11.607 2.648-7.562-9.021-11.572-15.332-12.417.082-.026.314.271.396.246 1.964.229 2.789.045 5.081-.416 3.292-.66 6.414-1.371 9.803-1.083 2.326.195 4.249.697 6.15 1.628 1.283.628 2.453 1.454 3.615 2.28-.354-2.916-2.349-5.471-4.814-7.025-.927-.584-1.982-1.098-3.092-1.148-1.311-.062-2.651.358-3.815.927-.75.366-1.458.806-2.142 1.28-2.326 1.615-5.372 2.33-8.936 2.824 1.672-.604 3.986-1.791 5.652-2.81 6.676-3.903 18.54-11.536 29.321-8.74-1.242-1.317-2.824-2.562-4.441-3.377-5.534-2.796-12.217-.923-17.136 2.283-.917.599-2.271 1.606-3.143 2.271.908-2.865 5.867-7.359 8.547-8.865-7.312-1.471-11.517 8.102-15.029 12.791-1.464 1.953-3.699 3.467-5.914 4.451.98-1.926 2.218-3.822 3.357-5.666.564-.916 2.604-4.68 3.926-4.636-6.807-.233-9.418 11.007-13.077 13.493a90.355 90.355 0 01-5.046 2.361l-.019.034zM68.022 208.048c2.127-2.282 4.124-4.572 6.645-6.807 3.596-3.193 8.251-6.232 13.847-7.18 4.951-.841 8.938-.613 13.847-.782l.028.048c-2.129 2.283-4.127 4.571-6.645 6.81-3.595 3.19-8.252 6.228-13.845 7.177-4.954.84-9.096.273-13.85.779M122.136 309.925c1.417-3.967 2.968-7.829 3.949-12.076 1.4-6.053 1.578-12.84-2.245-18.381-3.385-4.903-7.453-7.981-11.802-12.198l-.093.021c-1.418 3.969-2.968 7.832-3.949 12.074-1.399 6.059-1.578 12.842 2.245 18.381 3.383 4.907 8.108 7.782 11.801 12.2M93.344 289.828c-2.705-2.127-5.291-4.328-8.324-6.187-4.322-2.651-9.527-4.548-14.807-3.022-4.672 1.35-8.109 3.7-12.498 5.973l-.01.076c2.704 2.127 5.293 4.326 8.323 6.186 4.327 2.652 9.53 4.548 14.807 3.023 4.673-1.346 8.124-4.258 12.5-5.972M62.71 254.112c-1.676-1.913-3.254-3.864-5.205-5.631-2.778-2.517-6.303-4.606-10.346-4.22-3.58.341-6.397 1.582-9.898 2.632l-.018.056c1.675 1.916 3.256 3.865 5.203 5.633 2.781 2.518 6.304 4.605 10.347 4.219 3.579-.34 6.485-1.983 9.898-2.631M75.142 271.772c1.421-1.95 2.898-3.821 4.124-5.998 1.748-3.099 2.943-6.799 1.738-10.461-1.066-3.241-2.805-5.592-4.511-8.61l-.055-.004c-1.421 1.948-2.897 3.823-4.123 5.994-1.75 3.104-2.944 6.803-1.739 10.465 1.063 3.241 3.195 5.586 4.509 8.611"
            fill="#70885d" />
        <ellipse transform="rotate(-161.406 75.183 99.074)" cx="75.182" cy="99.075" rx="4.162" ry="1.249"
            fill="#70885d" />
        <ellipse transform="scale(-1) rotate(-76.974 -114.225 95.513)" cx="75.941" cy="90.822" rx="4.163" ry="1.248"
            fill="#70885d" />
    </g>
    <g>
        <path
            d="M172.251 23.583a4.918 4.918 0 017.709 6.109 4.921 4.921 0 01-6.912.804 4.923 4.923 0 01-.797-6.913zM141.779 27.517a4.311 4.311 0 016.756 5.355 4.31 4.31 0 01-6.756-5.355zM94.099 53.867a4.31 4.31 0 016.756 5.355 4.31 4.31 0 01-6.756-5.355zM154.48 44.319c-2.264-1.065-2.741-4.018-1.417-6.033.606 1.094.848 1.664 1.071 2.302.318.922.788 2.262.346 3.731zM147.398 42.562c2.498.116 4.302-2.271 4.071-4.672-1.045.686-1.523 1.077-2.021 1.537-.712.664-1.754 1.629-2.05 3.135zM135.25 20.665c2.246-3.103 6.82-2.979 9.469-.418-1.816.601-2.739.802-3.766.954-1.472.217-3.617.544-5.703-.536zM139.906 10.52c-.887 3.723 2.192 7.11 5.86 7.446-.732-1.768-1.181-2.596-1.732-3.473-.797-1.263-1.951-3.1-4.128-3.973zM323.127 238.528a3.182 3.182 0 014.286-1.347 3.18 3.18 0 011.348 4.283 3.18 3.18 0 01-4.286 1.351 3.18 3.18 0 01-1.348-4.287zM301.437 75.217a3.895 3.895 0 015.253-1.651 3.896 3.896 0 011.649 5.249 3.893 3.893 0 01-5.246 1.652 3.89 3.89 0 01-1.656-5.25zM341.622 210.142c.173 1.488.463 3.23 1.359 4.499.413.588 1.108 1.196 1.793 1.458 2.021.765 3.213-1.609 2.011-2.955-1.093-1.219-2.534-2.418-3.359-3.613a9.016 9.016 0 01-1.554-4.455c-.113-1.701-.463 3.254-.25 5.066zM344.784 208.3c.598.882 1.393 1.636 2.396 2.014.626.236 1.787.549 2.407.128.95-.646.489-1.612-.257-2.077-2.034-1.267-4.839-.914-5.866-3.535-.051-.125-.038-.004-.048.035-.047.188.12.565.169.744.163.615.381 1.215.668 1.783.156.311.331.615.531.908zM332.182 209.33c-1.067 1.053-2.383 2.231-3.877 2.66-.688.198-1.611.241-2.311.016-2.058-.666-1.498-3.268.28-3.564 1.615-.268 3.488-.3 4.881-.718a8.943 8.943 0 003.999-2.501c1.152-1.259-1.673 2.827-2.972 4.107zM330.866 205.916c-1.018.313-2.108.403-3.13.069-.64-.205-1.734-.688-1.957-1.405-.342-1.1.626-1.562 1.497-1.461 2.38.286 4.348 2.314 6.79.91.116-.062.029.021.016.061-.081.175-.447.367-.597.477a9.81 9.81 0 01-1.637.975 8.57 8.57 0 01-.982.374zM336.072 116.346c1.074 1.042 2.4 2.21 3.896 2.626.69.191 1.617.227 2.312-.006 2.05-.686 1.47-3.28-.313-3.56-1.616-.255-3.491-.271-4.884-.676a8.94 8.94 0 01-4.023-2.467c-1.163-1.245 1.699 2.814 3.012 4.083zM337.356 112.919c1.021.306 2.109.388 3.128.046.637-.213 1.73-.707 1.944-1.425.331-1.101-.638-1.559-1.511-1.449-2.376.308-4.327 2.354-6.782.971-.112-.062-.028.026-.012.061.082.176.448.363.599.469a9.615 9.615 0 001.646.961c.317.14.649.265.988.366zM293.272 291.82c-.684 1.335-1.414 2.942-1.375 4.496.019.717.254 1.609.68 2.208 1.253 1.763 3.566.449 3.314-1.337-.229-1.621-.762-3.418-.776-4.869a8.906 8.906 0 011.188-4.566c.852-1.478-2.197 2.445-3.031 4.068zM296.926 292.05c.003 1.066.246 2.135.868 3.009.391.547 1.182 1.448 1.932 1.446 1.147-.008 1.305-1.067.943-1.871-.984-2.182-3.512-3.452-2.904-6.201.025-.129-.031-.021-.062.005-.144.129-.216.535-.272.712a9.485 9.485 0 00-.438 1.85c-.047.347-.07.699-.067 1.05zM286.399 283.119c-1.474.271-3.225.506-4.699.021-.682-.225-1.469-.709-1.918-1.287-1.328-1.708.598-3.544 2.234-2.789 1.485.688 3.055 1.714 4.438 2.148a8.949 8.949 0 004.715.18c1.662-.391-2.973 1.399-4.77 1.727zM287.233 279.556c-1.019-.312-1.971-.854-2.629-1.7-.41-.528-1.049-1.547-.828-2.265.338-1.098 1.396-.94 2.062-.362 1.808 1.571 2.296 4.354 5.104 4.567.13.014.012.037-.022.058-.165.101-.575.051-.76.058a9.534 9.534 0 01-1.902-.113 8.611 8.611 0 01-1.025-.243zM252.009 31c1.438-.419 3.109-.993 4.211-2.086.51-.506.998-1.293 1.139-2.01.424-2.122-2.119-2.901-3.244-1.494-1.022 1.279-1.965 2.9-3.008 3.909a8.92 8.92 0 01-4.137 2.272c-1.657.394 3.286-.083 5.039-.591zM247.851 43.198c.598 1.374 1.225 3.026 1.086 4.572-.062.714-.355 1.594-.817 2.16-1.362 1.681-3.587.224-3.222-1.542.33-1.604.976-3.365 1.086-4.812a8.944 8.944 0 00-.897-4.634c-.756-1.526 2.036 2.581 2.764 4.256zM324.446 123.018c.036 1.499 0 3.264-.706 4.647-.328.639-.93 1.344-1.568 1.699-1.892 1.045-3.409-1.138-2.411-2.64.909-1.363 2.165-2.753 2.811-4.056a8.924 8.924 0 00.901-4.629c-.129-1.698.922 3.158.973 4.979zM321.05 121.646c-.465.958-1.144 1.817-2.085 2.334-.587.326-1.689.796-2.365.467-1.032-.5-.715-1.525-.043-2.089 1.834-1.543 4.661-1.598 5.304-4.337.033-.129.039-.007.054.03.072.178-.038.577-.062.758a9.432 9.432 0 01-.405 1.861 8.188 8.188 0 01-.398.976zM194.96 22.921a2.675 2.675 0 013.686-.847 2.68 2.68 0 01.847 3.683 2.673 2.673 0 01-4.533-2.836zM251.101 38.19a5.757 5.757 0 017.453-3.256 5.755 5.755 0 013.26 7.453 5.757 5.757 0 01-7.455 3.262 5.758 5.758 0 01-3.258-7.459zM359.543 163.856a3.177 3.177 0 111.347 4.289 3.184 3.184 0 01-1.347-4.289zM339.24 243.113c-1.8 1.812-4.803 1.258-6.283-.703 1.259-.207 1.887-.244 2.579-.238.994.008 2.438.015 3.704.941zM335.125 249.318c.968-2.363-.709-4.91-3.092-5.513.297 1.239.51 1.832.781 2.468.395.914.965 2.244 2.311 3.045zM314.125 233.65c-.067 2.555 2.405 4.34 4.846 4.059-.719-1.054-1.126-1.533-1.606-2.031-.693-.716-1.698-1.755-3.24-2.028zM312.476 240.91c1.039-2.332 4.043-2.877 6.125-1.568-1.104.643-1.681.896-2.327 1.137-.933.345-2.288.853-3.798.431zM345.26 173.335a1.883 1.883 0 01.062-2.658 1.88 1.88 0 012.653.064 1.875 1.875 0 01-.062 2.654 1.877 1.877 0 01-2.653-.06zM201.661 34.755a1.88 1.88 0 01.27-2.644 1.885 1.885 0 012.643.273 1.88 1.88 0 01-.271 2.64 1.876 1.876 0 01-2.642-.269zM304.458 284.324a1.878 1.878 0 012.715-2.595c.717.75.688 1.94-.062 2.653-.75.72-1.938.69-2.653-.058zM367.205 117.589a1.877 1.877 0 113.33 1.734 1.877 1.877 0 01-3.33-1.734zM315.208 149.327a1.877 1.877 0 113.331 1.733 1.877 1.877 0 01-3.331-1.733zM279.092 53.835a4.063 4.063 0 015.483-1.726 4.068 4.068 0 011.723 5.479 4.068 4.068 0 01-5.479 1.726 4.064 4.064 0 01-1.727-5.479zM278.558 64.785a1.86 1.86 0 012.508-.789 1.857 1.857 0 11-2.508.789zM292.571 52.476a1.857 1.857 0 113.297 1.715 1.857 1.857 0 01-3.297-1.715zM342.671 199.882a1.146 1.146 0 011.544-.484 1.144 1.144 0 11-1.544.484z"
            fill="#b2def0" />
        <circle cx="289.452" cy="143.011" r="1.144" fill="#b2def0" />
        <circle cx="329.894" cy="272.959" r="1.144" fill="#b2def0" />
        <circle cx="296.171" cy="263.598" r="1.144" fill="#b2def0" />
        <circle cx="334.924" cy="199.006" r="1.143" fill="#b2def0" />
        <path d="M312.137 77.632c.29-.559.982-.777 1.543-.486a1.145 1.145 0 01-1.057 2.028 1.143 1.143 0 01-.486-1.542z"
            fill="#b2def0" />
        <circle cx="203.649" cy="15.532" r="1.143" fill="#b2def0" />
        <path
            d="M147.392 18.998a1.148 1.148 0 011.577-.363 1.15 1.15 0 01.363 1.577 1.145 1.145 0 01-1.94-1.214zM151.245 35.662a.906.906 0 011.137-.583.904.904 0 11-1.137.583zM211.421 326.843a4.918 4.918 0 01-7.813-5.979 4.922 4.922 0 016.896-.922 4.925 4.925 0 01.917 6.901zM241.799 321.132a4.31 4.31 0 01-6.847-5.237 4.312 4.312 0 016.037-.808 4.312 4.312 0 01.81 6.045zM228.812 304.55c2.282 1.025 2.811 3.971 1.521 6.009-.625-1.084-.876-1.649-1.109-2.284-.334-.917-.827-2.247-.412-3.725zM235.924 306.187c-2.5-.074-4.264 2.344-3.991 4.74 1.034-.703 1.506-1.104 1.996-1.572.699-.676 1.724-1.658 1.995-3.168zM248.444 327.873c-2.191 3.141-6.768 3.096-9.461.58 1.807-.633 2.726-.85 3.75-1.019 1.468-.244 3.607-.606 5.711.439zM243.963 338.097c.822-3.737-2.313-7.072-5.987-7.346.764 1.754 1.227 2.576 1.793 3.441.817 1.25 2.003 3.067 4.194 3.905zM38.86 141.956c-.2-1.486-.519-3.222-1.436-4.475-.424-.58-1.129-1.179-1.818-1.427-2.035-.731-3.184 1.667-1.958 2.989 1.112 1.201 2.574 2.374 3.417 3.556a8.94 8.94 0 011.631 4.427c.142 1.7.408-3.262.164-5.07zM35.729 143.853c-.613-.872-1.42-1.611-2.431-1.974-.63-.226-1.795-.516-2.409-.085-.94.66-.462 1.62.291 2.072 2.056 1.23 4.855.832 5.927 3.436.052.122.038 0 .047-.038.044-.188-.129-.563-.181-.741a9.54 9.54 0 00-.697-1.772 7.829 7.829 0 00-.547-.898zM48.312 142.606c1.05-1.071 2.345-2.271 3.831-2.726.686-.211 1.61-.268 2.31-.055 2.067.632 1.554 3.241-.219 3.567-1.61.297-3.483.36-4.867.803a8.943 8.943 0 00-3.956 2.57c-1.132 1.276 1.625-2.857 2.901-4.159zM49.687 145.999c1.011-.332 2.101-.441 3.128-.125.641.195 1.747.66 1.98 1.373.358 1.093-.599 1.576-1.473 1.486-2.384-.245-4.387-2.239-6.804-.794-.115.066-.031-.022-.015-.059.077-.177.44-.375.588-.485a9.571 9.571 0 011.619-1.002c.313-.151.641-.284.977-.394zM46.016 235.643c-1.094-1.024-2.44-2.169-3.943-2.56-.695-.18-1.62-.197-2.31.047-2.04.721-1.413 3.305.373 3.554 1.621.228 3.495.209 4.896.593a8.945 8.945 0 014.063 2.396c1.185 1.226-1.747-2.784-3.079-4.03zM44.791 239.091c-1.027-.289-2.119-.352-3.131.009-.631.224-1.717.735-1.919 1.458-.311 1.105.666 1.548 1.536 1.423 2.371-.349 4.287-2.427 6.764-1.087.117.061.029-.025.013-.062-.085-.174-.457-.354-.609-.457a9.508 9.508 0 00-1.661-.934 8.582 8.582 0 00-.993-.35zM85.802 59.461c.661-1.345 1.364-2.966 1.298-4.518-.031-.717-.282-1.607-.717-2.196-1.283-1.741-3.572-.388-3.291 1.393.255 1.617.818 3.404.86 4.856a8.912 8.912 0 01-1.11 4.585c-.825 1.492 2.156-2.482 2.96-4.12zM82.146 59.294c-.023-1.066-.282-2.129-.92-2.993-.398-.539-1.205-1.428-1.954-1.411-1.149.024-1.287 1.088-.913 1.883 1.023 2.166 3.57 3.393 3.011 6.153-.024.129.033.021.062-.005.142-.132.206-.54.262-.716a9.546 9.546 0 00.407-1.86c.036-.345.054-.698.045-1.051zM92.823 68.044c1.47-.295 3.217-.562 4.699-.102.686.213 1.482.684 1.941 1.255 1.356 1.685-.537 3.552-2.187 2.826-1.498-.66-3.083-1.661-4.475-2.071a8.914 8.914 0 00-4.717-.098c-1.653.417 2.95-1.451 4.739-1.81zM92.051 71.622c1.024.295 1.986.817 2.659 1.654.419.523 1.073 1.53.865 2.25-.316 1.104-1.38.966-2.054.401-1.833-1.542-2.368-4.318-5.18-4.481-.131-.011-.012-.037.021-.059.165-.103.574-.061.759-.07a9.529 9.529 0 011.902.081c.344.052.688.125 1.028.224zM131.526 319.539c-1.432.443-3.092 1.045-4.175 2.157-.5.515-.975 1.31-1.104 2.029-.385 2.128 2.171 2.864 3.271 1.438 1-1.297 1.914-2.935 2.94-3.961a8.93 8.93 0 014.096-2.342c1.651-.422-3.285.14-5.028.679zM135.475 307.271c-.62-1.363-1.275-3.004-1.164-4.553.052-.717.331-1.6.781-2.174 1.334-1.703 3.583-.285 3.249 1.486-.303 1.61-.918 3.381-1.003 4.829a8.934 8.934 0 00.974 4.617c.782 1.516-2.081-2.543-2.837-4.205zM57.526 228.773c-.065-1.498-.058-3.264.626-4.66.315-.645.904-1.357 1.538-1.725 1.874-1.077 3.428 1.078 2.456 2.598-.884 1.379-2.117 2.79-2.738 4.104a8.931 8.931 0 00-.825 4.645c.157 1.696-.977-3.142-1.057-4.962zM60.943 230.087c.448-.965 1.113-1.836 2.045-2.369.581-.336 1.676-.825 2.356-.51 1.042.482.741 1.515.079 2.09-1.808 1.574-4.631 1.677-5.228 4.428-.031.13-.037.007-.053-.029-.076-.177.027-.576.048-.76.065-.635.184-1.26.373-1.868.105-.329.23-.661.38-.982zM56.865 113.257a3.176 3.176 0 11-5.682-2.843 3.176 3.176 0 015.682 2.843zM81.348 276.173a3.892 3.892 0 01-6.964-3.48 3.894 3.894 0 015.217-1.741 3.89 3.89 0 011.747 5.221zM188.705 326.64a2.673 2.673 0 01-4.578-2.76 2.673 2.673 0 014.578 2.76zM132.31 312.332a5.757 5.757 0 01-7.396 3.385 5.754 5.754 0 014.012-10.785 5.757 5.757 0 013.384 7.4z"
            fill="#b2def0" />
        <circle cx="18.891" cy="187.121" r="3.176" fill="#b2def0" />
        <path
            d="M40.678 108.948c1.768-1.842 4.778-1.339 6.293.596-1.255.229-1.883.277-2.575.283-.994.009-2.44.027-3.718-.879zM44.685 102.674c-.927 2.378.793 4.898 3.187 5.458-.319-1.234-.541-1.824-.826-2.455-.409-.905-1.002-2.224-2.361-3.003zM65.95 117.981c.024-2.553-2.479-4.299-4.915-3.975.737 1.041 1.152 1.515 1.643 2.003.703.701 1.725 1.725 3.272 1.972zM67.473 110.694c-1 2.348-3.993 2.946-6.095 1.672 1.091-.659 1.663-.925 2.307-1.176.926-.361 2.272-.89 3.788-.496zM35.851 178.821a1.88 1.88 0 01-.017 2.657 1.879 1.879 0 01-2.638-2.673 1.879 1.879 0 012.655.016zM181.804 314.919a1.88 1.88 0 01-.226 2.648 1.883 1.883 0 01-2.646-.227 1.879 1.879 0 012.872-2.421zM74.748 67.149a1.88 1.88 0 01-.017 2.658 1.877 1.877 0 11.017-2.658zM14.865 234.934a1.878 1.878 0 11-3.36-1.676 1.878 1.878 0 013.36 1.676zM66.309 202.31a1.878 1.878 0 11-3.362-1.676 1.878 1.878 0 013.362 1.676zM104.056 297.169a4.058 4.058 0 01-5.453 1.818 4.064 4.064 0 01-1.816-5.447 4.065 4.065 0 015.447-1.817 4.059 4.059 0 011.822 5.446zM287.056 295.169a4.058 4.058 0 01-5.453 1.818c-1.998-.998-2.818-3.441-1.816-5.447s3.449-2.816 5.447-1.817a4.058 4.058 0 011.822 5.446zM104.403 286.212a1.859 1.859 0 01-3.324-1.66 1.86 1.86 0 012.49-.831 1.856 1.856 0 01.834 2.491zM90.601 298.759a1.857 1.857 0 11-3.322-1.66 1.857 1.857 0 013.322 1.66z"
            fill="#b2def0" />
        <circle cx="36.962" cy="151.722" r="1.143" fill="#b2def0" />
        <path
            d="M93.193 208.695a1.148 1.148 0 01-1.534.514 1.15 1.15 0 01-.512-1.535 1.146 1.146 0 011.533-.51c.567.282.796.968.513 1.531z"
            fill="#b2def0" />
        <circle cx="49.51" cy="78.947" r="1.143" fill="#b2def0" />
        <circle cx="83.388" cy="87.73" r="1.143" fill="#b2def0" />
        <circle cx="45.746" cy="152.977" r="1.143" fill="#b2def0" />
        <circle cx="69.585" cy="273.431" r="1.143" fill="#b2def0" />
        <circle cx="180.144" cy="334.175" r="1.143" fill="#b2def0" />
        <path
            d="M236.333 329.746a1.147 1.147 0 01-1.57.392 1.15 1.15 0 01-.39-1.57 1.145 1.145 0 011.567-.39c.543.325.718 1.029.393 1.568zM232.196 313.151a.908.908 0 01-1.129.603.905.905 0 111.129-.603z"
            fill="#b2def0" />
    </g>
</svg>